<svg width="102" height="101" viewBox="0 0 102 101" fill="none" xmlns="http://www.w3.org/2000/svg">
<path d="M12.5053 87.1316C10.6813 87.1299 9.20382 85.7173 9.20198 83.9734V21.3811C7.72913 20.2717 6.8692 18.578 6.8692 16.7857C6.8692 14.9925 7.72913 13.2988 9.20198 12.1894V8.62856H6.13461C4.3106 8.63032 2.83314 10.0437 2.8313 11.7867V88.4851C2.83314 90.229 4.3106 91.6415 6.13461 91.6433H62.0781C61.1389 90.2272 60.3702 88.7133 59.7868 87.1316H12.5053Z" fill="#0C9854" fill-opacity="0.3"/>
<path d="M74.5606 5.92157H67.7097V1.3535C67.7097 0.606256 67.0756 0 66.294 0C65.5115 0 64.8783 0.606256 64.8783 1.3535V5.92157H49.9461V1.3535C49.9461 0.606256 49.3119 0 48.5303 0C47.7488 0 47.1146 0.606256 47.1146 1.3535V5.92157H32.1834V1.3535C32.1834 0.606256 31.5502 0 30.7677 0C29.9861 0 29.3519 0.606256 29.3519 1.3535V5.92157H14.4197V1.3535C14.4197 0.606256 13.7856 0 13.004 0C12.2225 0 11.5883 0.606256 11.5883 1.3535V5.92157H6.13473C2.74754 5.92509 0.00368674 8.54926 0 11.7867V88.4851C0.00368674 91.7235 2.74754 94.3468 6.13473 94.3503H64.8359C65.6175 94.3503 66.2516 93.7449 66.2516 92.9968C66.2516 92.2496 65.6175 91.6433 64.8359 91.6433H6.13473C4.31072 91.6415 2.83326 90.229 2.83141 88.4851V11.7867C2.83326 10.0438 4.31072 8.63033 6.13473 8.62857H11.5883V11.0783C8.55968 11.7647 6.54949 14.5105 6.91079 17.466C7.27209 20.4215 9.89151 22.65 13.004 22.65C16.1166 22.65 18.736 20.4215 19.0973 17.466C19.4586 14.5105 17.4484 11.7647 14.4197 11.0783V8.62857H29.3519V11.0783C26.3233 11.7647 24.3131 14.5105 24.6744 17.466C25.0366 20.4215 27.6551 22.65 30.7677 22.65C33.8802 22.65 36.4996 20.4215 36.8609 17.466C37.2222 14.5105 35.212 11.7647 32.1834 11.0783V8.62857H47.1156V11.0783C44.0869 11.7647 42.0767 14.5105 42.438 17.466C42.7993 20.4215 45.4187 22.65 48.5313 22.65C51.6438 22.65 54.2632 20.4215 54.6245 17.466C54.9858 14.5105 52.9756 11.7647 49.947 11.0783V8.62857H64.8783V11.0783C61.8505 11.7647 59.8394 14.5105 60.2007 17.466C60.5629 20.4215 63.1814 22.65 66.294 22.65C69.4065 22.65 72.0259 20.4215 72.3872 17.466C72.7494 14.5105 70.7383 11.7647 67.7097 11.0783V8.62857H74.5606C76.3836 8.63033 77.862 10.0438 77.8639 11.7867V59.0042C77.8639 59.7514 78.4971 60.3577 79.2796 60.3577C80.0612 60.3577 80.6953 59.7514 80.6953 59.0042V11.7867C80.6916 8.54926 77.9468 5.92509 74.5606 5.92157ZM16.3074 16.7839C16.3074 18.5278 14.8281 19.9421 13.004 19.9421C11.18 19.9421 9.70072 18.5278 9.70072 16.7839C9.70072 15.0401 11.18 13.6258 13.004 13.6258C14.8271 13.6275 16.3055 15.0401 16.3074 16.7839ZM34.07 16.7839C34.07 18.5278 32.5917 19.9421 30.7667 19.9421C28.9427 19.9421 27.4634 18.5278 27.4634 16.7839C27.4634 15.0401 28.9427 13.6258 30.7667 13.6258C32.5907 13.6275 34.0691 15.0401 34.071 16.7839H34.07ZM51.8337 16.7839C51.8337 18.5278 50.3553 19.9421 48.5303 19.9421C46.7063 19.9421 45.227 18.5278 45.227 16.7839C45.227 15.0401 46.7063 13.6258 48.5303 13.6258C50.3544 13.6275 51.8318 15.0401 51.8337 16.7839ZM69.5973 16.7839C69.5973 18.5278 68.118 19.9421 66.294 19.9421C64.469 19.9421 62.9907 18.5278 62.9907 16.7839C62.9907 15.0401 64.469 13.6258 66.294 13.6258C68.1171 13.6275 69.5945 15.0401 69.5973 16.7839Z" fill="#0C9854"/>
<path d="M14.393 75.8525C13.6105 75.8525 12.9773 76.4587 12.9773 77.206C12.9773 77.9541 13.6105 78.5595 14.393 78.5595H55.0669C55.8485 78.5595 56.4826 77.9541 56.4826 77.206C56.4826 76.4587 55.8485 75.8525 55.0669 75.8525H14.393Z" fill="#0C9854"/>
<path d="M66.3022 51.0541H14.393C13.6105 51.0541 12.9773 51.6595 12.9773 52.4076C12.9773 53.1549 13.6105 53.7611 14.393 53.7611H66.3022C67.0838 53.7611 67.7179 53.1549 67.7179 52.4076C67.7179 51.6595 67.0838 51.0541 66.3022 51.0541Z" fill="#0C9854"/>
<path d="M66.3022 38.655H14.393C13.6105 38.655 12.9773 39.2603 12.9773 40.0085C12.9773 40.7557 13.6105 41.362 14.393 41.362H66.3022C67.0838 41.362 67.7179 40.7557 67.7179 40.0085C67.7179 39.2603 67.0838 38.655 66.3022 38.655Z" fill="#0C9854"/>
<path d="M61.8192 64.8059C61.8192 64.0587 61.1851 63.4524 60.4035 63.4524H14.393C13.6105 63.4524 12.9773 64.0587 12.9773 64.8059C12.9773 65.5532 13.6105 66.1594 14.393 66.1594H60.4035C61.1851 66.1594 61.8192 65.5532 61.8192 64.8059Z" fill="#0C9854"/>
<path d="M88.9324 59.3302C83.0816 57.0091 76.5581 57.7536 71.2905 61.3446C66.0236 64.9349 62.6157 70.9603 62.0745 77.6399C62.0254 78.2549 62 78.881 62 79.5019C61.9929 86.219 64.9127 92.5528 69.8912 96.6141C73.3657 99.4727 77.623 101.015 81.9985 101C91.6859 100.999 99.9803 93.5349 101.686 83.2838C103.391 73.0327 98.0185 62.9409 88.9316 59.3302H88.9324ZM81.9993 98.3841C77.3394 98.39 72.8681 96.4029 69.5726 92.8603C66.278 89.3178 64.4286 84.5121 64.4342 79.5019C64.4342 78.9568 64.4563 78.4048 64.4999 77.864C65.3224 67.6861 73.5273 60.0576 83.0151 60.6479C92.5036 61.2382 99.8338 69.8334 99.5588 80.0462C99.2839 90.2581 91.5036 98.3832 81.9993 98.3832V98.3841Z" fill="#0C9854"/>
<path d="M90.2431 78.4061H83.1508V71.6254C83.1508 70.8782 82.5166 70.2719 81.7351 70.2719C80.9535 70.2719 80.3193 70.8782 80.3193 71.6254V78.4061H73.227C72.4454 78.4061 71.8113 79.0115 71.8113 79.7596C71.8113 80.5069 72.4454 81.1131 73.227 81.1131H80.3193V87.8939C80.3193 88.6411 80.9535 89.2474 81.7351 89.2474C82.5166 89.2474 83.1508 88.6411 83.1508 87.8939V81.1131H90.2431C91.0247 81.1131 91.6588 80.5069 91.6588 79.7596C91.6588 79.0115 91.0247 78.4061 90.2431 78.4061Z" fill="#0C9854"/>
</svg>
