<svg width="15" height="15" viewBox="0 0 15 15" fill="none" xmlns="http://www.w3.org/2000/svg">
<path d="M14.5109 8.01137H5.05431C4.78431 8.01137 4.56519 7.78228 4.56519 7.50001C4.56519 7.21774 4.78431 6.98865 5.05431 6.98865H14.5109C14.7809 6.98865 15 7.21774 15 7.50001C15 7.78228 14.7809 8.01137 14.5109 8.01137Z" fill="#EF1212"/>
<path d="M7.66284 10.7385C7.53757 10.7385 7.41242 10.6888 7.31713 10.5886L4.70848 7.86136C4.51742 7.66149 4.51742 7.33764 4.70848 7.13789L7.31713 4.41068C7.50819 4.21093 7.81796 4.21093 8.00914 4.41068C8.20021 4.61043 8.20021 4.93427 8.00914 5.13402L5.74609 7.49994L8.00914 9.86586C8.20021 10.0656 8.20021 10.3895 8.00914 10.5892C7.91325 10.6888 7.78799 10.7385 7.66284 10.7385Z" fill="#EF1212"/>
<path d="M7.17392 15C3.2185 15 0 11.6352 0 7.5C0 3.36479 3.2185 0 7.17392 0C10.1419 0 12.7624 1.86679 13.8508 4.75643C13.95 5.01885 13.826 5.31548 13.575 5.41973C13.3239 5.5221 13.0401 5.39451 12.9404 5.13071C12.0006 2.63521 9.73695 1.02272 7.17392 1.02272C3.75779 1.02272 0.978257 3.92871 0.978257 7.5C0.978257 11.0713 3.75779 13.9773 7.17392 13.9773C9.73695 13.9773 12.0006 12.3648 12.9404 9.87004C13.0395 9.60612 13.3233 9.47865 13.575 9.5809C13.826 9.68452 13.95 9.98177 13.8508 10.2443C12.7624 13.1332 10.1419 15 7.17392 15Z" fill="#EF1212"/>
</svg>
