<svg width="89" height="39" viewBox="0 0 89 39" fill="none" xmlns="http://www.w3.org/2000/svg">
<path d="M21.1 30V8.7H24.34L34.96 23.94V8.7H38.53V30H35.29L24.67 14.7V30H21.1ZM49.7711 30.45C48.6311 30.45 47.5711 30.25 46.5911 29.85C45.6311 29.43 44.7911 28.85 44.0711 28.11C43.3511 27.35 42.7911 26.47 42.3911 25.47C41.9911 24.45 41.7911 23.34 41.7911 22.14C41.7911 20.96 41.9911 19.87 42.3911 18.87C42.7911 17.85 43.3511 16.97 44.0711 16.23C44.8111 15.47 45.6711 14.89 46.6511 14.49C47.6511 14.07 48.7311 13.86 49.8911 13.86C51.0311 13.86 52.0811 14.07 53.0411 14.49C54.0211 14.89 54.8711 15.47 55.5911 16.23C56.3111 16.97 56.8711 17.84 57.2711 18.84C57.6711 19.84 57.8711 20.94 57.8711 22.14C57.8711 23.34 57.6711 24.45 57.2711 25.47C56.8711 26.47 56.3011 27.35 55.5611 28.11C54.8411 28.85 53.9811 29.43 52.9811 29.85C52.0011 30.25 50.9311 30.45 49.7711 30.45ZM49.8311 27.33C50.6911 27.33 51.4611 27.11 52.1411 26.67C52.8211 26.21 53.3511 25.59 53.7311 24.81C54.1311 24.03 54.3311 23.14 54.3311 22.14C54.3311 21.14 54.1311 20.26 53.7311 19.5C53.3511 18.72 52.8211 18.11 52.1411 17.67C51.4611 17.21 50.6911 16.98 49.8311 16.98C48.9711 16.98 48.2011 17.21 47.5211 17.67C46.8411 18.11 46.3011 18.72 45.9011 19.5C45.5211 20.26 45.3311 21.14 45.3311 22.14C45.3311 23.14 45.5211 24.03 45.9011 24.81C46.3011 25.59 46.8411 26.21 47.5211 26.67C48.2011 27.11 48.9711 27.33 49.8311 27.33ZM66.9787 30.45C65.3987 30.45 64.1587 30 63.2587 29.1C62.3587 28.18 61.9087 26.87 61.9087 25.17V17.1H59.1487V14.31H61.9087V9H65.3587V14.31H69.9187V17.1H65.3587V24.81C65.3587 25.65 65.5287 26.3 65.8687 26.76C66.2287 27.2 66.7487 27.42 67.4287 27.42C67.7887 27.42 68.1787 27.37 68.5987 27.27C69.0187 27.15 69.4087 26.99 69.7687 26.79L70.5487 29.4C70.0887 29.72 69.5487 29.97 68.9287 30.15C68.3287 30.35 67.6787 30.45 66.9787 30.45Z" fill="black"/>
<path d="M79.7221 30.45C78.5421 30.45 77.4421 30.25 76.4221 29.85C75.4221 29.43 74.5521 28.81 73.8121 27.99C73.0921 27.17 72.5821 26.17 72.2821 24.99L75.5221 24.36C75.8421 25.32 76.3621 26.06 77.0821 26.58C77.8021 27.1 78.6621 27.36 79.6621 27.36C80.4021 27.36 81.0621 27.22 81.6421 26.94C82.2221 26.66 82.6721 26.27 82.9921 25.77C83.3321 25.27 83.5021 24.7 83.5021 24.06C83.5021 23.42 83.3321 22.86 82.9921 22.38C82.6721 21.88 82.2121 21.5 81.6121 21.24C81.0321 20.98 80.3421 20.85 79.5421 20.85H77.3221V17.79H79.3921C80.1321 17.79 80.7721 17.67 81.3121 17.43C81.8721 17.17 82.3021 16.81 82.6021 16.35C82.9021 15.89 83.0521 15.36 83.0521 14.76C83.0521 14.2 82.9121 13.71 82.6321 13.29C82.3521 12.87 81.9621 12.54 81.4621 12.3C80.9821 12.06 80.4121 11.94 79.7521 11.94C78.8521 11.94 78.0521 12.19 77.3521 12.69C76.6721 13.19 76.1921 13.91 75.9121 14.85L72.6721 14.22C72.9121 13.14 73.3721 12.2 74.0521 11.4C74.7321 10.6 75.5721 9.98 76.5721 9.54C77.5721 9.08 78.6821 8.85 79.9021 8.85C80.8621 8.85 81.7421 8.99 82.5421 9.27C83.3621 9.53 84.0721 9.91 84.6721 10.41C85.2721 10.91 85.7321 11.51 86.0521 12.21C86.3921 12.89 86.5621 13.65 86.5621 14.49C86.5621 15.53 86.2921 16.45 85.7521 17.25C85.2321 18.05 84.4821 18.68 83.5021 19.14C84.6021 19.54 85.4621 20.18 86.0821 21.06C86.7221 21.94 87.0421 22.97 87.0421 24.15C87.0421 25.05 86.8521 25.89 86.4721 26.67C86.1121 27.43 85.6021 28.09 84.9421 28.65C84.2821 29.21 83.5021 29.65 82.6021 29.97C81.7221 30.29 80.7621 30.45 79.7221 30.45Z" fill="#0C9854"/>
<path d="M13.0712 21.0765L9.93016 24.3998L1.78784 16.1729L4.92888 12.8516L13.0712 21.0765ZM13.9044 26.8483L15.3051 25.3663C15.8465 24.7935 15.8359 23.8737 15.2815 23.3117L13.9074 21.9233L10.7663 25.2465L12.3692 26.866C12.7992 27.3004 13.4845 27.2925 13.9044 26.8483ZM0.440981 11.183C0.179933 11.1262 -0.0505669 11.3719 0.0158489 11.6404L0.916867 15.293L4.0579 11.9716L0.440981 11.183Z" fill="black"/>
</svg>
