<svg width="77" height="33" viewBox="0 0 77 33" fill="none" xmlns="http://www.w3.org/2000/svg">
<path d="M20.75 25V7.25H23.45L32.3 19.95V7.25H35.275V25H32.575L23.725 12.25V25H20.75ZM44.6426 25.375C43.6926 25.375 42.8092 25.2083 41.9926 24.875C41.1926 24.525 40.4926 24.0417 39.8926 23.425C39.2926 22.7917 38.8259 22.0583 38.4926 21.225C38.1592 20.375 37.9926 19.45 37.9926 18.45C37.9926 17.4667 38.1592 16.5583 38.4926 15.725C38.8259 14.875 39.2926 14.1417 39.8926 13.525C40.5092 12.8917 41.2259 12.4083 42.0426 12.075C42.8759 11.725 43.7759 11.55 44.7426 11.55C45.6926 11.55 46.5676 11.725 47.3676 12.075C48.1842 12.4083 48.8926 12.8917 49.4926 13.525C50.0926 14.1417 50.5592 14.8667 50.8926 15.7C51.2259 16.5333 51.3926 17.45 51.3926 18.45C51.3926 19.45 51.2259 20.375 50.8926 21.225C50.5592 22.0583 50.0842 22.7917 49.4676 23.425C48.8676 24.0417 48.1509 24.525 47.3176 24.875C46.5009 25.2083 45.6092 25.375 44.6426 25.375ZM44.6926 22.775C45.4092 22.775 46.0509 22.5917 46.6176 22.225C47.1842 21.8417 47.6259 21.325 47.9426 20.675C48.2759 20.025 48.4426 19.2833 48.4426 18.45C48.4426 17.6167 48.2759 16.8833 47.9426 16.25C47.6259 15.6 47.1842 15.0917 46.6176 14.725C46.0509 14.3417 45.4092 14.15 44.6926 14.15C43.9759 14.15 43.3342 14.3417 42.7676 14.725C42.2009 15.0917 41.7509 15.6 41.4176 16.25C41.1009 16.8833 40.9426 17.6167 40.9426 18.45C40.9426 19.2833 41.1009 20.025 41.4176 20.675C41.7509 21.325 42.2009 21.8417 42.7676 22.225C43.3342 22.5917 43.9759 22.775 44.6926 22.775ZM58.9822 25.375C57.6656 25.375 56.6322 25 55.8822 24.25C55.1322 23.4833 54.7572 22.3917 54.7572 20.975V14.25H52.4572V11.925H54.7572V7.5H57.6322V11.925H61.4322V14.25H57.6322V20.675C57.6322 21.375 57.7739 21.9167 58.0572 22.3C58.3572 22.6667 58.7906 22.85 59.3572 22.85C59.6572 22.85 59.9822 22.8083 60.3322 22.725C60.6822 22.625 61.0072 22.4917 61.3072 22.325L61.9572 24.5C61.5739 24.7667 61.1239 24.975 60.6072 25.125C60.1072 25.2917 59.5656 25.375 58.9822 25.375ZM69.6018 25.375C68.6184 25.375 67.7018 25.2083 66.8518 24.875C66.0184 24.525 65.2934 24.0083 64.6768 23.325C64.0768 22.6417 63.6518 21.8083 63.4018 20.825L66.1018 20.3C66.3684 21.1 66.8018 21.7167 67.4018 22.15C68.0018 22.5833 68.7184 22.8 69.5518 22.8C70.1684 22.8 70.7184 22.6833 71.2018 22.45C71.6851 22.2167 72.0601 21.8917 72.3268 21.475C72.6101 21.0583 72.7518 20.5833 72.7518 20.05C72.7518 19.5167 72.6101 19.05 72.3268 18.65C72.0601 18.2333 71.6768 17.9167 71.1768 17.7C70.6934 17.4833 70.1184 17.375 69.4518 17.375H67.6018V14.825H69.3268C69.9434 14.825 70.4768 14.725 70.9268 14.525C71.3934 14.3083 71.7518 14.0083 72.0018 13.625C72.2518 13.2417 72.3768 12.8 72.3768 12.3C72.3768 11.8333 72.2601 11.425 72.0268 11.075C71.7934 10.725 71.4684 10.45 71.0518 10.25C70.6518 10.05 70.1768 9.95 69.6268 9.95C68.8768 9.95 68.2101 10.1583 67.6268 10.575C67.0601 10.9917 66.6601 11.5917 66.4268 12.375L63.7268 11.85C63.9268 10.95 64.3101 10.1667 64.8768 9.5C65.4434 8.83333 66.1434 8.31667 66.9768 7.95C67.8101 7.56667 68.7351 7.375 69.7518 7.375C70.5518 7.375 71.2851 7.49167 71.9518 7.725C72.6351 7.94167 73.2268 8.25833 73.7268 8.675C74.2268 9.09167 74.6101 9.59167 74.8768 10.175C75.1601 10.7417 75.3018 11.375 75.3018 12.075C75.3018 12.9417 75.0768 13.7083 74.6268 14.375C74.1934 15.0417 73.5684 15.5667 72.7518 15.95C73.6684 16.2833 74.3851 16.8167 74.9018 17.55C75.4351 18.2833 75.7018 19.1417 75.7018 20.125C75.7018 20.875 75.5434 21.575 75.2268 22.225C74.9268 22.8583 74.5018 23.4083 73.9518 23.875C73.4018 24.3417 72.7518 24.7083 72.0018 24.975C71.2684 25.2417 70.4684 25.375 69.6018 25.375Z" fill="white"/>
<path d="M13.0711 18.0765L9.9301 21.3998L1.78778 13.1729L4.92882 9.85157L13.0711 18.0765ZM13.9043 23.8483L15.3051 22.3663C15.8464 21.7935 15.8358 20.8737 15.2814 20.3117L13.9073 18.9233L10.7663 22.2465L12.3691 23.866C12.7991 24.3004 13.4844 24.2925 13.9043 23.8483ZM0.44092 8.18302C0.179872 8.1262 -0.0506279 8.37192 0.0157879 8.64041L0.916806 12.293L4.05784 8.97159L0.44092 8.18302Z" fill="white"/>
</svg>
