<svg width="430" height="374" viewBox="0 0 430 374" fill="none" xmlns="http://www.w3.org/2000/svg">
<g clip-path="url(#clip0)">
<path d="M402.815 374L156.15 354.499L183.334 30.2502L430 49.7517L402.815 374Z" fill="url(#paint0_linear)"/>
<path d="M399.858 369.371L159.838 350.389L186.292 34.8792L426.312 53.856L399.858 369.371Z" fill="#0C9854"/>
<path d="M414.045 319.479L171.006 364.815L107.811 45.3366L350.849 0L414.045 319.479Z" fill="url(#paint1_linear)"/>
<path d="M409.919 315.787L173.43 359.905L111.937 49.028L348.426 4.91544L409.919 315.787Z" fill="#E0E0E0"/>
<path d="M384.669 24.1303H137.187V349.452H384.669V24.1303Z" fill="url(#paint2_linear)"/>
<path d="M381.339 28.5114H140.522V345.066H381.339V28.5114Z" fill="white"/>
<path d="M221.673 83.13C221.935 104.312 239.834 121.278 261.648 121.016C283.463 120.753 300.944 103.379 300.672 82.1926C300.587 74.3185 297.991 66.6603 293.237 60.2572C288.483 53.8542 281.801 49.0164 274.097 46.4003L274.218 56.2797C274.272 59.7149 272.912 63.0306 270.435 65.5006C267.958 67.9705 264.566 69.3933 261.004 69.4571C257.446 69.4766 254.026 68.1378 251.489 65.7332C248.953 63.3287 247.507 60.054 247.467 56.6246L247.346 46.7451C239.712 49.5385 233.154 54.5279 228.562 61.0367C223.969 67.5455 221.564 75.2586 221.673 83.13Z" fill="url(#paint3_linear)"/>
<path d="M300.687 79.0937C300.687 57.9069 283.004 40.7223 261.185 40.7223C239.366 40.7223 221.683 57.8971 221.683 79.0937C221.669 86.9691 224.168 94.658 228.842 101.117C233.516 107.576 240.138 112.491 247.809 115.197V105.317C247.807 101.888 249.212 98.5968 251.718 96.1632C254.224 93.7296 257.628 92.3512 261.185 92.3294C264.742 92.3512 268.145 93.7296 270.652 96.1632C273.158 98.5968 274.563 101.888 274.561 105.317V115.202C282.233 112.496 288.855 107.579 293.529 101.12C298.203 94.6599 300.703 86.9699 300.687 79.0937Z" fill="#0C9854"/>
<path d="M261.21 88.5651C269.596 88.5651 276.394 81.963 276.394 73.8188C276.394 65.6747 269.596 59.0726 261.21 59.0726C252.824 59.0726 246.026 65.6747 246.026 73.8188C246.026 81.963 252.824 88.5651 261.21 88.5651Z" fill="white" stroke="white" stroke-miterlimit="10"/>
<path d="M261.185 92.3294C257.628 92.3512 254.224 93.7296 251.718 96.1632C249.212 98.5968 247.807 101.888 247.809 105.317V115.202C256.453 118.211 265.917 118.211 274.561 115.202V105.317C274.563 101.888 273.158 98.5968 270.652 96.1632C268.146 93.7296 264.742 92.3512 261.185 92.3294Z" fill="white" stroke="white" stroke-miterlimit="10"/>
<path d="M245.895 73.0029C244.676 70.71 244.117 68.1435 244.278 65.5714C244.451 62.9928 245.658 60.5801 247.643 58.8443C249.855 57.0132 252.852 56.3672 255.749 56.1437C258.646 55.9203 261.583 56.0563 264.434 55.5074C266.795 55.0407 269.036 54.1251 271.025 52.8142C273.015 51.5032 274.713 49.8231 276.022 47.872C276.203 50.0334 276.384 52.2434 275.956 54.3612C275.528 56.4789 274.399 58.5869 272.495 59.704C274.802 58.6694 274.551 61.098 274.052 62.5503C275.195 63.8909 277.971 64.1143 278.112 65.8483C278.253 67.5823 278.228 69.3746 277.533 70.9726C276.838 72.5706 277.583 75.3926 275.8 75.514" fill="white"/>
<path d="M245.895 73.0029C244.676 70.71 244.117 68.1435 244.278 65.5714C244.451 62.9928 245.658 60.5801 247.643 58.8443C249.855 57.0132 252.852 56.3672 255.749 56.1437C258.646 55.9203 261.583 56.0563 264.434 55.5074C266.795 55.0407 269.036 54.1251 271.025 52.8142C273.015 51.5032 274.713 49.8231 276.022 47.872C276.203 50.0334 276.384 52.2434 275.956 54.3612C275.528 56.4789 274.399 58.5869 272.495 59.704C274.802 58.6694 274.551 61.098 274.052 62.5503C275.195 63.8909 277.971 64.1143 278.112 65.8483C278.253 67.5823 278.228 69.3746 277.533 70.9726C276.838 72.5706 277.583 75.3926 275.8 75.514" stroke="white" stroke-miterlimit="10"/>
<path d="M273.341 59.3834C273.341 59.3834 283.921 60.282 276.394 75.5529L273.341 59.3834Z" fill="white"/>
<path d="M195.793 278.8H163.082V310.566H195.793V278.8Z" fill="url(#paint4_linear)"/>
<path d="M192.967 281.539H165.898V307.826H192.967V281.539Z" fill="#0C9854"/>
<path d="M300.687 147.356H221.733V152.835H300.687V147.356Z" fill="#0C9854"/>
<path d="M354.829 155.025H221.733V160.504H354.829V155.025Z" fill="#E0E0E0"/>
<path d="M354.829 162.69H221.733V168.169H354.829V162.69Z" fill="#E0E0E0"/>
<path d="M300.687 215.817H221.733V221.296H300.687V215.817Z" fill="#0C9854"/>
<path d="M354.829 223.482H221.733V228.961H354.829V223.482Z" fill="#E0E0E0"/>
<path d="M354.829 231.151H221.733V236.63H354.829V231.151Z" fill="#E0E0E0"/>
<path d="M300.687 284.274H221.733V289.753H300.687V284.274Z" fill="#FFD963"/>
<path d="M354.829 291.943H221.733V297.422H354.829V291.943Z" fill="#E0E0E0"/>
<path d="M354.829 299.613H221.733V305.092H354.829V299.613Z" fill="#E0E0E0"/>
<path d="M116.991 245.125H98.5621C96.688 220.315 75.3877 200.746 49.3569 200.746C22.0968 200.746 -0.0145264 222.205 -0.0145264 248.676C-0.0145264 275.147 22.0817 296.606 49.3569 296.606C73.2769 296.606 93.2169 280.092 97.7208 258.143H116.971C118.761 258.143 120.478 257.457 121.744 256.236C123.01 255.016 123.721 253.36 123.721 251.634C123.721 249.908 123.01 248.252 121.744 247.032C120.478 245.811 118.761 245.125 116.971 245.125H116.991Z" fill="url(#paint5_linear)"/>
<path d="M50.2833 204.316C25.0535 204.316 4.59961 224.177 4.59961 248.676C4.59961 273.175 25.0535 293.036 50.2833 293.036C75.5131 293.036 95.967 273.175 95.967 248.676C95.967 224.177 75.5131 204.316 50.2833 204.316ZM50.2833 286.469C28.7916 286.469 11.3705 269.552 11.3705 248.681C11.3705 227.81 28.7916 210.892 50.2833 210.892C71.775 210.892 89.196 227.8 89.196 248.686C89.196 269.571 71.775 286.465 50.2833 286.465V286.469Z" fill="white"/>
<path d="M92.0223 245.393H113.549C115.019 245.393 116.429 245.956 117.468 246.957C118.507 247.959 119.091 249.318 119.091 250.735V252.086C119.091 253.503 118.507 254.862 117.468 255.864C116.429 256.866 115.019 257.429 113.549 257.429H92.0223V245.393Z" fill="white"/>
<path d="M50.2883 287.013C72.0908 287.013 89.7653 269.849 89.7653 248.676C89.7653 227.503 72.0908 210.339 50.2883 210.339C28.4857 210.339 10.8113 227.503 10.8113 248.676C10.8113 269.849 28.4857 287.013 50.2883 287.013Z" fill="#0C9854"/>
<path opacity="0.2" d="M54.6965 234.381C51.6183 235.936 50.1321 240.21 52.1775 242.94C52.9937 244.023 54.1927 244.742 55.2355 245.635C56.2784 246.529 57.16 247.777 56.9786 249.108C56.801 249.92 56.4107 250.674 55.8451 251.299C53.7745 253.941 51.2203 256.452 50.5503 259.707C49.9457 262.66 51.0541 265.749 52.8576 268.202C53.8652 269.596 55.2204 270.888 56.9283 271.335C58.8175 271.82 60.8629 271.179 62.4699 270.067C64.077 268.955 65.2609 267.42 66.4398 265.909L69.1855 262.393C69.9361 261.421 70.6969 260.387 70.7775 259.182C70.8732 257.113 68.8631 255.563 68.1779 253.606C66.9083 249.973 70.4097 246.218 69.9412 242.405C69.2207 236.645 60.0014 231.686 54.6965 234.381Z" fill="black"/>
</g>
<defs>
<linearGradient id="paint0_linear" x1="279.417" y1="364.282" x2="304.866" y2="39.7598" gradientUnits="userSpaceOnUse">
<stop stop-color="#808080" stop-opacity="0.25"/>
<stop offset="0.54" stop-color="#808080" stop-opacity="0.12"/>
<stop offset="1" stop-color="#808080" stop-opacity="0.1"/>
</linearGradient>
<linearGradient id="paint1_linear" x1="263168" y1="247424" x2="218599" y2="6687.28" gradientUnits="userSpaceOnUse">
<stop stop-color="#808080" stop-opacity="0.25"/>
<stop offset="0.54" stop-color="#808080" stop-opacity="0.12"/>
<stop offset="1" stop-color="#808080" stop-opacity="0.1"/>
</linearGradient>
<linearGradient id="paint2_linear" x1="128315" y1="234080" x2="128315" y2="16186.1" gradientUnits="userSpaceOnUse">
<stop stop-color="#808080" stop-opacity="0.25"/>
<stop offset="0.54" stop-color="#808080" stop-opacity="0.12"/>
<stop offset="1" stop-color="#808080" stop-opacity="0.1"/>
</linearGradient>
<linearGradient id="paint3_linear" x1="263.69" y1="120.396" x2="259.947" y2="45.5066" gradientUnits="userSpaceOnUse">
<stop stop-opacity="0.12"/>
<stop offset="0.55" stop-opacity="0.09"/>
<stop offset="1" stop-opacity="0.02"/>
</linearGradient>
<linearGradient id="paint4_linear" x1="11813.8" y1="20589.8" x2="11813.8" y2="18512.3" gradientUnits="userSpaceOnUse">
<stop stop-color="#808080" stop-opacity="0.25"/>
<stop offset="0.54" stop-color="#808080" stop-opacity="0.12"/>
<stop offset="1" stop-color="#808080" stop-opacity="0.1"/>
</linearGradient>
<linearGradient id="paint5_linear" x1="36625.8" y1="64969.9" x2="36625.8" y2="46050.9" gradientUnits="userSpaceOnUse">
<stop stop-color="#808080" stop-opacity="0.25"/>
<stop offset="0.54" stop-color="#808080" stop-opacity="0.12"/>
<stop offset="1" stop-color="#808080" stop-opacity="0.1"/>
</linearGradient>
<clipPath id="clip0">
<rect width="430" height="374" fill="white"/>
</clipPath>
</defs>
</svg>
