<svg width="30" height="25" viewBox="0 0 30 25" fill="none" xmlns="http://www.w3.org/2000/svg">
<path d="M30 6.25V22.3214C30 23.8002 28.7402 25 27.1875 25H2.8125C1.25977 25 0 23.8002 0 22.3214V6.25C0 4.77121 1.25977 3.57143 2.8125 3.57143H7.96875L8.68945 1.73549C9.09961 0.691964 10.1484 0 11.3203 0H18.6738C19.8457 0 20.8945 0.691964 21.3047 1.73549L22.0312 3.57143H27.1875C28.7402 3.57143 30 4.77121 30 6.25ZM22.0312 14.2857C22.0312 10.5915 18.8789 7.58929 15 7.58929C11.1211 7.58929 7.96875 10.5915 7.96875 14.2857C7.96875 17.9799 11.1211 20.9821 15 20.9821C18.8789 20.9821 22.0312 17.9799 22.0312 14.2857ZM20.1562 14.2857C20.1562 16.9922 17.8418 19.1964 15 19.1964C12.1582 19.1964 9.84375 16.9922 9.84375 14.2857C9.84375 11.5792 12.1582 9.375 15 9.375C17.8418 9.375 20.1562 11.5792 20.1562 14.2857Z" fill="white"/>
</svg>
