<svg width="291" height="297" viewBox="0 0 291 297" fill="none" xmlns="http://www.w3.org/2000/svg">
<path d="M52.0873 230.228H37.0375V284.469H52.0873V230.228Z" fill="#F4CEAE"/>
<path d="M52.0874 230.228V284.469H44.7506C44.7466 283.796 44.9049 283.131 45.2134 282.525C46.1578 280.685 46.8764 278.207 47.4295 275.805C49.5967 266.396 50.6464 256.146 51.2634 245.899C51.5795 240.69 51.7827 235.462 51.9143 230.228H52.0874Z" fill="#FFB594"/>
<path opacity="0.3" d="M159.126 58.6871C159.09 55.3852 158.341 52.1256 156.925 49.1107C155.51 46.0959 153.458 43.3902 150.897 41.1617C148.06 38.7726 144.687 37.0327 141.035 36.0752C137.383 35.1177 133.549 34.9679 129.827 35.6373C127.954 31.4221 124.827 27.8195 120.831 25.2724C116.835 22.7252 112.144 21.3446 107.335 21.3001C102.525 21.2556 97.8072 22.5492 93.7599 25.0219C89.7127 27.4946 86.5128 31.0386 84.5537 35.2184C78.452 35.4616 72.6616 37.8481 68.3011 41.9167C63.9406 45.9854 61.3196 51.4475 60.9443 57.2478V57.4411V57.6345C60.9443 57.6989 60.9443 57.7633 60.9443 57.8278C60.9443 57.8922 60.9443 57.9567 60.9443 58.0211C60.9443 58.0856 60.9443 58.15 60.9443 58.2145C60.9443 58.2789 60.9443 58.3433 60.9443 58.4078V58.7945C60.9443 58.8589 60.9443 58.9234 60.9443 58.9878C60.9443 59.0522 60.9443 59.1167 60.9443 59.1811C60.9443 59.2456 60.9443 59.31 60.9443 59.3745C60.9443 59.4389 60.9443 59.5034 60.9443 59.5678V59.7611C60.9443 59.8256 60.9443 59.89 60.9443 59.9545C60.9443 60.0189 60.9443 60.0834 60.9443 60.1478V60.3411C60.9443 60.4056 60.9443 60.47 60.9631 60.5345C60.9819 60.5989 60.9631 60.6598 60.9631 60.7242C60.9631 60.7887 60.9631 60.8531 60.9819 60.9176L61.0045 61.1109L61.027 61.3042L61.0496 61.494C61.0496 61.5584 61.0496 61.6229 61.0759 61.6873C61.1023 61.7518 61.0948 61.8162 61.1023 61.8806C61.1098 61.9451 61.1211 62.006 61.1324 62.0704C61.1437 62.1348 61.1324 62.1993 61.1625 62.2602L61.1963 62.4535L61.2302 62.6432L61.2641 62.833C61.2641 62.8974 61.2904 62.9619 61.3017 63.0228C61.313 63.0836 61.328 63.1516 61.3431 63.2161C61.3581 63.2805 61.3694 63.3414 61.3807 63.4023C61.392 63.4631 61.4108 63.5312 61.4221 63.592L61.4672 63.7818L61.5124 63.9715C61.5124 64.0324 61.5425 64.0968 61.5613 64.1577L61.6064 64.3474C61.6253 64.4083 61.6403 64.4728 61.6591 64.5336C61.6779 64.5945 61.693 64.6589 61.708 64.7234L61.7645 64.9095C61.7645 64.9704 61.7983 65.0349 61.8171 65.0957L61.8736 65.2819C61.8736 65.3428 61.9112 65.4036 61.9338 65.4681L61.9902 65.6507C62.0128 65.7151 62.0316 65.776 62.0542 65.8368C62.0768 65.8977 62.0956 65.9586 62.1144 66.0194C62.1332 66.0803 62.1595 66.1447 62.1783 66.2056L62.2461 66.3882L62.3138 66.5708L62.3815 66.7534C62.4041 66.8142 62.4304 66.8715 62.453 66.9324L62.5245 67.115C62.5471 67.1759 62.5734 67.2367 62.5997 67.294L62.6712 67.4766L62.7502 67.6556L62.8292 67.8346L62.9083 68.0101L62.9873 68.1891C63.0174 68.2464 63.0437 68.3072 63.07 68.3645L63.1566 68.5435C63.1829 68.6008 63.213 68.6581 63.2394 68.7189C63.2657 68.7798 63.2996 68.8335 63.3259 68.8908L63.4162 69.0662L63.5065 69.2381L63.5968 69.4135L63.6908 69.5854L63.7849 69.7572L63.8827 69.9255C63.9128 69.9828 63.9467 70.0401 63.9806 70.0973L64.0784 70.2656L64.18 70.4339L64.2816 70.6022L64.3831 70.7669L64.4885 70.9351C64.5224 70.9888 64.56 71.0425 64.5938 71.0998L64.7029 71.2609C64.7368 71.3182 64.7744 71.3719 64.8121 71.4256C64.8497 71.4793 64.8835 71.533 64.9212 71.5867L65.034 71.7514L65.1469 71.909L65.2598 72.0701L65.3764 72.2276C65.4178 72.2813 65.4554 72.335 65.4968 72.3851L65.6135 72.5427L65.7339 72.7002L65.858 72.8541C65.8956 72.9079 65.937 72.958 65.9784 73.0081L66.1026 73.1621L66.1665 73.2372C66.1837 73.2631 66.2054 73.2861 66.2305 73.3053C66.251 73.316 66.27 73.3293 66.2869 73.3446L66.3471 73.4162C66.3848 73.4664 66.4262 73.5129 66.4675 73.5595L66.5879 73.7027L66.7083 73.8423L66.8325 73.9819L66.9567 74.1216L67.0846 74.2576L67.2087 74.3937C67.2539 74.4402 67.2953 74.4867 67.3404 74.5297C67.3856 74.5727 67.4232 74.6228 67.4684 74.6658L67.6 74.7982C67.6414 74.8448 67.6866 74.8877 67.728 74.9307L67.8634 75.0632L67.9951 75.1956L68.1305 75.3245L68.266 75.4534L68.4052 75.5787L68.5407 75.7076C68.5896 75.747 68.6347 75.79 68.6799 75.8329L68.8228 75.9547L68.9621 76.08L69.105 76.2017L69.248 76.3234L69.3947 76.4416C69.4399 76.4845 69.4888 76.5239 69.5377 76.5633L69.6844 76.6814L69.8312 76.796L69.9817 76.9142L70.1284 77.0287L70.2789 77.1397L70.4294 77.2543L70.5837 77.3653L70.7342 77.4727L70.8884 77.5837L71.0427 77.6911L71.2007 77.7985L71.355 77.9023L71.513 78.0061L71.671 78.11L71.829 78.2138L71.9908 78.314L72.1526 78.4143L72.3144 78.511L72.4762 78.6076L72.638 78.7043L72.8035 78.7974L72.9653 78.8941L73.1309 78.9836L73.3002 79.0766L73.4657 79.1662C73.5221 79.1948 73.5786 79.2234 73.6313 79.2557L73.8006 79.3416L73.9699 79.4275L74.1392 79.5134L74.3123 79.5958L74.4816 79.6781L74.6546 79.7605L74.8277 79.8392L75.0008 79.918L75.1739 79.9968L75.3469 80.072L75.5238 80.1471L75.6968 80.2187L75.8737 80.2904L76.0505 80.362L76.2274 80.4336L76.4042 80.5016L76.5848 80.566L76.7616 80.6305L76.9422 80.6949L77.1228 80.7594L77.3034 80.8202L77.484 80.8811L77.6646 80.9384L77.849 80.9957L78.0296 81.0529L78.2139 81.1067L78.3983 81.1604L78.5789 81.2105L78.7632 81.2606L78.9514 81.3107L79.1357 81.3573L79.3201 81.4038L79.5044 81.4468L79.6926 81.4897L79.8807 81.5327L80.0651 81.5721L80.2532 81.6115L80.4413 81.6508L80.6294 81.6867L80.8175 81.7189L81.0057 81.7511L81.1938 81.7833L81.3819 81.8155L81.5738 81.8442H81.7055C84.0504 82.1187 86.4133 82.2288 88.7751 82.1736H96.9547H137.029C138.027 82.1989 139.026 82.1486 140.016 82.0232C140.931 81.872 141.827 81.632 142.691 81.3071C144.638 80.6147 146.487 79.6947 148.196 78.5682C151.293 76.4968 153.872 73.8011 155.75 70.6729C157.627 67.5447 158.757 64.061 159.058 60.47C159.107 59.8757 159.129 59.2814 159.126 58.6871Z" fill="#0C9854"/>
<path opacity="0.3" d="M98.1737 169.317C98.1378 166.015 97.3888 162.756 95.9732 159.741C94.5577 156.726 92.5059 154.02 89.9453 151.792C87.1087 149.403 83.7353 147.663 80.0834 146.705C76.4314 145.748 72.5977 145.598 68.8755 146.267C67.0021 142.052 63.8753 138.45 59.8793 135.902C55.8834 133.355 51.1924 131.975 46.383 131.93C41.5737 131.886 36.8554 133.179 32.8081 135.652C28.7609 138.125 25.561 141.669 23.6019 145.849C17.5016 146.093 11.713 148.481 7.35406 152.549C2.99515 156.618 0.375136 162.079 0 167.878V168.071V168.265C0 168.329 0 168.393 0 168.458C0 168.522 0 168.587 0 168.651C0 168.716 0 168.78 0 168.845C0 168.909 0 168.973 0 169.038V169.425C0 169.489 0 169.553 0 169.618C0 169.682 0 169.747 0 169.811C0 169.876 0 169.94 0 170.005C0 170.069 0 170.133 0 170.198V170.391C0 170.456 0 170.52 0 170.585C0 170.649 0 170.713 0 170.778V170.971C0 171.036 0 171.1 0 171.165C0 171.229 0 171.29 0 171.354C0 171.419 0 171.483 0 171.548L0.0225747 171.741L0.0451495 171.934L0.0677242 172.124C0.0677242 172.188 0.0865365 172.253 0.0940614 172.317C0.101586 172.382 0.0940614 172.446 0.120399 172.511C0.146736 172.575 0.139211 172.636 0.150498 172.7C0.161786 172.765 0.16931 172.829 0.180598 172.89L0.21446 173.084L0.248322 173.273L0.282184 173.463C0.282184 173.528 0.308521 173.592 0.319809 173.653C0.331096 173.714 0.346146 173.782 0.361196 173.846C0.376245 173.911 0.387533 173.971 0.39882 174.032C0.410108 174.093 0.42892 174.161 0.440207 174.222L0.485357 174.412L0.530506 174.602C0.530506 174.662 0.560606 174.727 0.579418 174.788L0.624568 174.978C0.64338 175.038 0.65843 175.103 0.677242 175.164C0.696054 175.225 0.711104 175.289 0.726154 175.353L0.782591 175.54C0.782591 175.6 0.816453 175.665 0.835265 175.726L0.891702 175.912C0.891702 175.973 0.929326 176.034 0.951901 176.098L1.00834 176.281C1.03091 176.345 1.04972 176.406 1.0723 176.467C1.09487 176.528 1.11369 176.589 1.1325 176.649C1.15131 176.71 1.17765 176.775 1.19646 176.836L1.26418 177.018L1.33191 177.201L1.39963 177.383C1.42221 177.444 1.44855 177.502 1.47112 177.562L1.54261 177.745C1.56518 177.806 1.59152 177.867 1.61786 177.924L1.68934 178.107L1.76835 178.286L1.84737 178.465L1.92638 178.64L2.00539 178.819C2.03549 178.876 2.06183 178.937 2.08816 178.995L2.1747 179.174C2.20104 179.231 2.23114 179.288 2.25747 179.349C2.28381 179.41 2.31767 179.464 2.34401 179.521L2.43431 179.696L2.52461 179.868L2.61491 180.044L2.70897 180.215L2.80303 180.387L2.90085 180.556C2.93095 180.613 2.96481 180.67 2.99868 180.727L3.0965 180.896L3.19809 181.064L3.29967 181.232L3.40126 181.397L3.50661 181.565C3.54047 181.619 3.57809 181.673 3.61196 181.73L3.72107 181.891C3.75493 181.948 3.79255 182.002 3.83018 182.056C3.8678 182.109 3.90167 182.163 3.93929 182.217L4.05216 182.381L4.16504 182.539L4.27791 182.7L4.39455 182.858C4.43593 182.911 4.47356 182.965 4.51495 183.015L4.63158 183.173L4.75198 183.33L4.87614 183.484C4.91377 183.538 4.95515 183.588 4.99654 183.638L5.1207 183.792L5.18466 183.867C5.20186 183.893 5.22348 183.916 5.24862 183.935C5.26915 183.946 5.28812 183.959 5.30506 183.975L5.36526 184.046C5.40289 184.096 5.44427 184.143 5.48566 184.19L5.60606 184.333L5.72646 184.472L5.85062 184.612L5.97478 184.752L6.1027 184.888L6.22686 185.024C6.27201 185.07 6.3134 185.117 6.35855 185.16C6.4037 185.203 6.44132 185.253 6.48647 185.296L6.61816 185.428C6.65954 185.475 6.70469 185.518 6.74608 185.561L6.88153 185.693L7.10351 185.833L7.23896 185.962L7.37441 186.091L7.51362 186.216L7.64907 186.345C7.69798 186.384 7.74313 186.427 7.78828 186.47L7.93125 186.592L8.07047 186.717L8.21344 186.839L8.35641 186.961L8.50315 187.079C8.5483 187.122 8.59721 187.161 8.64612 187.201L8.79286 187.319L8.93959 187.433L9.09009 187.551L9.23683 187.666L9.38732 187.777L9.53782 187.892L9.69208 188.002L9.84258 188.11L9.99684 188.221L10.1511 188.328L10.3091 188.436L10.4634 188.54L10.6214 188.643L10.7794 188.747L10.9375 188.851L11.0992 188.951L11.2422 189.055L11.404 189.152L11.5658 189.248L11.7276 189.345L11.8931 189.438L12.0549 189.535L12.2205 189.624L12.3898 189.717L12.5553 189.807C12.6118 189.836 12.6682 189.864 12.7209 189.896L12.8902 189.982L13.0595 190.068L13.2288 190.154L13.4019 190.237L13.5712 190.319L13.7442 190.401L13.9173 190.48L14.0904 190.559L14.2635 190.638L14.4365 190.713L14.6134 190.788L14.7864 190.86L14.9633 190.931L15.1401 191.003L15.317 191.074L15.4938 191.142L15.6744 191.207L15.8512 191.271L16.0318 191.336L16.2124 191.4L16.393 191.461L16.5736 191.522L16.7542 191.579L16.9386 191.636L17.1192 191.694L17.3035 191.747L17.4879 191.801L17.6685 191.851L17.8528 191.901L18.041 191.952L18.2253 191.998L18.4097 192.045L18.5941 192.088L18.7822 192.131L18.9703 192.174L19.1547 192.213L19.3428 192.252L19.5309 192.292L19.719 192.327L19.9071 192.36L20.0953 192.392L20.2834 192.424L20.4715 192.456L20.6634 192.485L20.7951 192.503C23.14 192.777 25.5029 192.888 27.8647 192.832H36.0443H76.1182C77.1166 192.858 78.1156 192.807 79.1056 192.682C80.0206 192.531 80.917 192.291 81.7807 191.966C83.7148 191.261 85.5498 190.332 87.2438 189.198C90.3411 187.127 92.9204 184.431 94.7978 181.303C96.6753 178.175 97.8049 174.691 98.106 171.1C98.1549 170.506 98.1775 169.911 98.1737 169.317Z" fill="#0C9854"/>
<path opacity="0.3" d="M290.999 157.144C290.966 153.839 290.218 150.576 288.802 147.558C287.387 144.54 285.334 141.832 282.771 139.601C279.934 137.212 276.561 135.472 272.909 134.515C269.257 133.557 265.423 133.407 261.701 134.077C259.828 129.861 256.701 126.259 252.705 123.712C248.709 121.165 244.018 119.784 239.209 119.739C234.399 119.695 229.681 120.988 225.634 123.461C221.587 125.934 218.387 129.478 216.428 133.658C210.326 133.901 204.535 136.287 200.175 140.356C195.814 144.425 193.193 149.887 192.818 155.687V155.88V156.074C192.818 156.138 192.818 156.203 192.818 156.267C192.818 156.332 192.818 156.396 192.818 156.46C192.818 156.525 192.818 156.589 192.818 156.654C192.818 156.718 192.818 156.783 192.818 156.847V157.234C192.818 157.298 192.818 157.363 192.818 157.427C192.818 157.492 192.818 157.556 192.818 157.62C192.818 157.685 192.818 157.749 192.818 157.814C192.818 157.878 192.818 157.943 192.818 158.007V158.2C192.818 158.265 192.818 158.329 192.818 158.394C192.818 158.458 192.818 158.523 192.818 158.587V158.78C192.818 158.845 192.818 158.909 192.837 158.974C192.856 159.038 192.837 159.103 192.837 159.167C192.837 159.232 192.837 159.292 192.837 159.357L192.86 159.55L192.882 159.744L192.905 159.937C192.905 159.998 192.905 160.062 192.931 160.127C192.957 160.191 192.95 160.255 192.957 160.32C192.965 160.384 192.957 160.445 192.987 160.51C193.018 160.574 192.987 160.639 193.018 160.703L193.051 160.893L193.085 161.083L193.119 161.272C193.119 161.337 193.145 161.401 193.157 161.466C193.168 161.53 193.183 161.591 193.198 161.655C193.213 161.72 193.224 161.781 193.236 161.845C193.247 161.91 193.266 161.97 193.277 162.035L193.322 162.221L193.367 162.411C193.367 162.475 193.398 162.536 193.416 162.601L193.462 162.787L193.514 162.976C193.514 163.037 193.548 163.098 193.563 163.163L193.62 163.349C193.62 163.41 193.653 163.474 193.672 163.535L193.729 163.721C193.747 163.782 193.766 163.846 193.789 163.907L193.845 164.094L193.909 164.276C193.928 164.337 193.951 164.398 193.969 164.459C193.988 164.52 194.015 164.584 194.033 164.645L194.101 164.827L194.169 165.01L194.237 165.193L194.308 165.375C194.331 165.433 194.357 165.493 194.38 165.554C194.402 165.615 194.428 165.676 194.455 165.737C194.481 165.798 194.504 165.855 194.526 165.916L194.605 166.095L194.684 166.274L194.763 166.453L194.842 166.628L194.925 166.804L195.012 166.983C195.038 167.04 195.068 167.097 195.094 167.158C195.121 167.219 195.155 167.273 195.181 167.334L195.271 167.506L195.362 167.681L195.452 167.853L195.546 168.025L195.64 168.196C195.674 168.254 195.704 168.311 195.738 168.365C195.772 168.418 195.802 168.479 195.836 168.537C195.869 168.594 195.9 168.648 195.933 168.705L196.035 168.873L196.137 169.041L196.238 169.206L196.344 169.374C196.377 169.428 196.415 169.482 196.449 169.539L196.558 169.704C196.592 169.758 196.629 169.811 196.667 169.865L196.776 170.03L196.889 170.191L197.002 170.352L197.115 170.509L197.231 170.67C197.273 170.721 197.311 170.774 197.352 170.828L197.469 170.982C197.51 171.036 197.548 171.089 197.589 171.139L197.713 171.293C197.751 171.347 197.792 171.397 197.833 171.447L197.958 171.601L198.022 171.677C198.039 171.702 198.06 171.725 198.086 171.745L198.142 171.784L198.202 171.859L198.323 171.999C198.36 172.049 198.402 172.095 198.443 172.142L198.563 172.282L198.688 172.421L198.812 172.561L198.94 172.697L199.064 172.837C199.109 172.879 199.15 172.926 199.195 172.973C199.241 173.019 199.278 173.062 199.323 173.105C199.369 173.148 199.41 173.195 199.455 173.241C199.5 173.288 199.542 173.327 199.583 173.374L199.718 173.502L199.85 173.635L199.986 173.764L200.121 173.893L200.26 174.022L200.396 174.147L200.535 174.272L200.678 174.398L200.817 174.519L200.96 174.641L201.103 174.763L201.25 174.884L201.393 175.003L201.54 175.121L201.686 175.235L201.837 175.353L201.983 175.468L202.134 175.579L202.284 175.694L202.439 175.805L202.589 175.916L202.743 176.023L202.898 176.13L203.056 176.238L203.21 176.342L203.368 176.445L203.526 176.549L203.684 176.653L203.846 176.753L204.008 176.854L204.169 176.95L204.331 177.047L204.493 177.144L204.659 177.24L204.82 177.333L204.986 177.426L205.155 177.516L205.321 177.605L205.486 177.695L205.656 177.781L205.825 177.867L205.994 177.953L206.167 178.035L206.337 178.117L206.51 178.2L206.683 178.279L206.856 178.357L207.029 178.436L207.202 178.511L207.379 178.586L207.552 178.658L207.729 178.733L207.906 178.801L208.082 178.873L208.259 178.941L208.44 179.005L208.617 179.073L208.797 179.134L208.978 179.199L209.158 179.26L209.339 179.32L209.52 179.378L209.704 179.435L209.885 179.492L210.069 179.546L210.253 179.6L210.434 179.65L210.618 179.7L210.806 179.75L210.991 179.797L211.175 179.843L211.36 179.89L211.548 179.933L211.736 179.972L211.92 180.011L212.108 180.051L212.296 180.09L212.484 180.126L212.673 180.158L212.861 180.194L213.049 180.223L213.237 180.255L213.429 180.283H213.561C215.905 180.558 218.268 180.668 220.63 180.613H228.81H268.884C269.882 180.638 270.881 180.588 271.871 180.462C272.786 180.311 273.682 180.071 274.546 179.746C276.482 179.05 278.319 178.129 280.017 177.004C283.114 174.933 285.693 172.237 287.571 169.109C289.448 165.98 290.578 162.497 290.879 158.906C290.984 158.329 291.003 157.735 290.999 157.144Z" fill="#0C9854"/>
<path opacity="0.2" d="M288.178 248.799C288.144 245.494 287.396 242.231 285.981 239.213C284.565 236.195 282.512 233.486 279.949 231.256C277.113 228.867 273.739 227.127 270.087 226.169C266.435 225.212 262.602 225.062 258.879 225.731C257.006 221.516 253.879 217.913 249.883 215.366C245.887 212.819 241.196 211.439 236.387 211.394C231.578 211.35 226.859 212.643 222.812 215.116C218.765 217.589 215.565 221.133 213.606 225.312C207.504 225.556 201.714 227.942 197.353 232.011C192.993 236.079 190.372 241.541 189.996 247.342V247.535V247.728C189.996 247.793 189.996 247.857 189.996 247.922C189.996 247.986 189.996 248.051 189.996 248.115C189.996 248.18 189.996 248.244 189.996 248.308C189.996 248.373 189.996 248.437 189.996 248.502V248.888C189.996 248.953 189.996 249.017 189.996 249.082C189.996 249.146 189.996 249.211 189.996 249.275C189.996 249.34 189.996 249.404 189.996 249.468C189.996 249.533 189.996 249.597 189.996 249.662V249.855C189.996 249.92 189.996 249.984 189.996 250.048C189.996 250.113 189.996 250.177 189.996 250.242V250.435C189.996 250.5 189.996 250.564 190.015 250.628C190.034 250.693 190.015 250.754 190.015 250.818C190.015 250.883 190.015 250.947 190.034 251.012L190.057 251.205L190.079 251.398L190.102 251.588C190.102 251.652 190.121 251.717 190.128 251.781C190.136 251.846 190.147 251.91 190.154 251.975C190.162 252.039 190.173 252.1 190.184 252.164C190.196 252.229 190.203 252.293 190.215 252.354L190.248 252.547L190.282 252.737L190.316 252.927C190.316 252.991 190.342 253.056 190.354 253.117C190.365 253.178 190.38 253.246 190.395 253.31C190.41 253.374 190.421 253.435 190.433 253.496C190.444 253.557 190.463 253.625 190.474 253.686L190.519 253.876L190.564 254.066C190.564 254.126 190.595 254.191 190.613 254.252L190.659 254.441C190.659 254.502 190.692 254.567 190.711 254.628C190.73 254.688 190.745 254.753 190.76 254.817L190.817 255.004C190.817 255.064 190.85 255.129 190.869 255.19L190.926 255.376C190.944 255.437 190.963 255.498 190.986 255.562L191.042 255.745C191.065 255.809 191.084 255.87 191.106 255.931C191.129 255.992 191.148 256.053 191.166 256.113C191.185 256.174 191.212 256.239 191.23 256.3L191.298 256.482L191.366 256.665L191.434 256.847C191.456 256.908 191.482 256.965 191.505 257.026L191.577 257.209C191.599 257.27 191.625 257.331 191.652 257.388L191.723 257.571L191.802 257.75L191.881 257.929L191.96 258.104L192.039 258.283C192.069 258.34 192.096 258.401 192.122 258.458L192.209 258.637C192.235 258.695 192.265 258.752 192.291 258.813C192.318 258.874 192.352 258.927 192.378 258.985L192.468 259.16L192.559 259.332L192.649 259.508L192.743 259.679L192.837 259.851L192.935 260.019C192.965 260.077 192.999 260.134 193.033 260.191L193.13 260.36L193.232 260.528L193.334 260.696L193.435 260.861L193.541 261.029C193.574 261.083 193.612 261.137 193.646 261.194L193.755 261.355C193.789 261.412 193.827 261.466 193.864 261.52C193.902 261.573 193.936 261.627 193.973 261.681L194.086 261.845L194.199 262.003L194.312 262.164L194.429 262.322C194.47 262.375 194.508 262.429 194.549 262.479L194.666 262.637L194.786 262.794L194.91 262.948C194.948 263.002 194.989 263.052 195.03 263.102L195.155 263.256L195.219 263.331C195.236 263.357 195.257 263.38 195.283 263.399C195.303 263.41 195.322 263.423 195.339 263.439L195.399 263.51C195.437 263.56 195.478 263.607 195.52 263.653L195.64 263.797L195.76 263.936L195.885 264.076L196.009 264.216L196.137 264.352L196.261 264.488C196.306 264.534 196.347 264.581 196.393 264.624C196.438 264.667 196.475 264.717 196.52 264.76L196.652 264.892C196.693 264.939 196.739 264.982 196.78 265.025L196.915 265.157L197.047 265.29L197.183 265.418L197.318 265.547L197.457 265.673L197.593 265.802C197.642 265.841 197.687 265.884 197.732 265.927L197.875 266.049L198.014 266.174L198.157 266.296L198.3 266.417L198.447 266.536C198.492 266.578 198.541 266.618 198.59 266.657L198.737 266.775L198.883 266.89L199.034 267.008L199.18 267.123L199.331 267.234L199.481 267.348L199.636 267.459L199.786 267.567L199.941 267.678L200.095 267.785L200.253 267.892L200.407 267.996L200.565 268.1L200.723 268.204L200.881 268.308L201.043 268.408L201.205 268.508L201.366 268.605L201.528 268.702L201.69 268.798L201.856 268.891L202.017 268.988L202.183 269.078L202.352 269.171L202.518 269.26C202.574 269.289 202.631 269.317 202.683 269.35L202.853 269.436L203.022 269.521L203.191 269.607L203.364 269.69L203.534 269.772L203.707 269.854L203.88 269.933L204.053 270.012L204.226 270.091L204.399 270.166L204.576 270.241L204.749 270.313L204.926 270.384L205.103 270.456L205.279 270.528L205.456 270.596L205.637 270.66L205.814 270.724L205.994 270.789L206.175 270.853L206.355 270.914L206.536 270.975L206.717 271.032L206.901 271.09L207.082 271.147L207.266 271.201L207.45 271.254L207.631 271.304L207.815 271.355L208.003 271.405L208.188 271.451L208.372 271.498L208.557 271.541L208.745 271.584L208.933 271.627L209.117 271.666L209.305 271.705L209.493 271.745L209.681 271.781L209.87 271.813L210.058 271.845L210.246 271.877L210.434 271.91L210.626 271.938L210.758 271.956C213.102 272.231 215.465 272.341 217.827 272.285H226.007H266.081C267.079 272.311 268.078 272.26 269.068 272.135C269.983 271.984 270.879 271.744 271.743 271.419C273.69 270.727 275.539 269.807 277.248 268.68C280.345 266.609 282.924 263.913 284.802 260.785C286.679 257.657 287.809 254.173 288.11 250.582C288.159 249.988 288.181 249.393 288.178 248.799Z" fill="#0C9854"/>
<path opacity="0.2" d="M290.999 37.3845C290.964 34.0826 290.215 30.823 288.799 27.8082C287.383 24.7933 285.332 22.0876 282.771 19.8591C279.935 17.4717 276.563 15.7331 272.912 14.7763C269.262 13.8194 265.429 13.6696 261.709 14.3383C259.835 10.1231 256.709 6.52049 252.713 3.97338C248.717 1.42626 244.026 0.0456092 239.216 0.00111059C234.407 -0.043388 229.689 1.25021 225.641 3.7229C221.594 6.1956 218.394 9.73965 216.435 13.9195C210.333 14.1626 204.543 16.5491 200.183 20.6177C195.822 24.6864 193.201 30.1485 192.826 35.9488V36.1421V36.3355C192.826 36.3999 192.826 36.4644 192.826 36.5288C192.826 36.5933 192.826 36.6577 192.826 36.7221C192.826 36.7866 192.826 36.851 192.826 36.9155C192.826 36.9799 192.826 37.0444 192.826 37.1088V37.4955C192.826 37.5599 192.826 37.6244 192.826 37.6888C192.826 37.7533 192.826 37.8177 192.826 37.8822C192.826 37.9466 192.826 38.011 192.826 38.0755C192.826 38.1399 192.826 38.2044 192.826 38.2688V38.4622C192.826 38.5266 192.826 38.591 192.826 38.6555C192.826 38.7199 192.826 38.7844 192.826 38.8488V39.0422C192.826 39.1066 192.826 39.171 192.845 39.2355C192.863 39.2999 192.845 39.3608 192.845 39.4252C192.845 39.4897 192.845 39.5541 192.845 39.6186L192.867 39.8119L192.89 40.0052L192.912 40.195C192.912 40.2594 192.912 40.3239 192.939 40.3883C192.965 40.4528 192.957 40.5172 192.965 40.5817C192.972 40.6461 192.965 40.707 192.995 40.7714C193.025 40.8359 192.995 40.9003 193.025 40.9612L193.059 41.1545L193.093 41.3443L193.127 41.534C193.127 41.5985 193.153 41.6629 193.164 41.7238C193.176 41.7846 193.191 41.8527 193.206 41.9171C193.221 41.9815 193.232 42.0424 193.243 42.1033C193.255 42.1641 193.273 42.2322 193.285 42.293L193.33 42.4828L193.375 42.6725C193.375 42.7334 193.405 42.7979 193.424 42.8587L193.469 43.0485C193.469 43.1093 193.503 43.1738 193.522 43.2346C193.541 43.2955 193.556 43.36 193.571 43.4244L193.627 43.6106C193.627 43.6714 193.661 43.7359 193.68 43.7967L193.736 43.9829C193.755 44.0438 193.774 44.1046 193.796 44.1691L193.853 44.3517C193.875 44.4161 193.894 44.477 193.917 44.5379C193.939 44.5987 193.958 44.6596 193.977 44.7205C193.996 44.7813 194.022 44.8458 194.041 44.9066L194.109 45.0892L194.176 45.2718L194.244 45.4544C194.267 45.5153 194.293 45.5726 194.316 45.6334L194.387 45.816C194.41 45.8769 194.436 45.9377 194.462 45.995L194.534 46.1776L194.613 46.3566L194.692 46.5356L194.771 46.7111L194.85 46.8901C194.88 46.9474 194.906 47.0082 194.933 47.0655L195.019 47.2445C195.046 47.3018 195.076 47.3591 195.102 47.42C195.128 47.4808 195.162 47.5345 195.189 47.5918L195.279 47.7673L195.369 47.9391L195.459 48.1145L195.554 48.2864L195.648 48.4582L195.745 48.6265C195.776 48.6838 195.809 48.7411 195.843 48.7984L195.941 48.9666L196.043 49.1349L196.144 49.3032L196.246 49.4679L196.351 49.6361C196.385 49.6899 196.423 49.7436 196.457 49.8008L196.566 49.962C196.599 50.0192 196.637 50.0729 196.675 50.1266C196.712 50.1804 196.746 50.2341 196.784 50.2878L196.897 50.4524L197.01 50.61L197.122 50.7711L197.239 50.9286C197.28 50.9823 197.318 51.036 197.359 51.0862L197.476 51.2437L197.597 51.4012L197.721 51.5552C197.758 51.6089 197.8 51.659 197.841 51.7091L197.965 51.8631L198.029 51.9383C198.046 51.9642 198.068 51.9871 198.093 52.0063C198.114 52.017 198.133 52.0303 198.15 52.0457L198.21 52.1173C198.247 52.1674 198.289 52.2139 198.33 52.2605L198.451 52.4037L198.571 52.5433L198.695 52.683L198.819 52.8226L198.947 52.9586L199.071 53.0947C199.117 53.1412 199.158 53.1878 199.203 53.2307C199.248 53.2737 199.286 53.3238 199.331 53.3668L199.463 53.4993C199.504 53.5458 199.549 53.5888 199.591 53.6317L199.726 53.7642L199.858 53.8967L199.993 54.0256L200.129 54.1544L200.268 54.2797L200.403 54.4086C200.452 54.448 200.497 54.491 200.543 54.534L200.686 54.6557L200.825 54.781L200.968 54.9027L201.111 55.0244L201.257 55.1426C201.303 55.1856 201.351 55.2249 201.4 55.2643L201.547 55.3825L201.694 55.497L201.844 55.6152L201.991 55.7298L202.142 55.8407L202.292 55.9553L202.446 56.0663L202.597 56.1737L202.751 56.2847L202.905 56.3921L203.063 56.4995L203.218 56.6033L203.376 56.7072L203.534 56.811L203.692 56.9148L203.853 57.0151L204.015 57.1153L204.177 57.212L204.339 57.3087L204.501 57.4053L204.666 57.4984L204.828 57.5951L204.994 57.6846L205.163 57.7777L205.328 57.8672C205.385 57.8958 205.441 57.9245 205.494 57.9567L205.663 58.0426L205.833 58.1285L206.002 58.2145L206.175 58.2968L206.344 58.3791L206.517 58.4615L206.69 58.5403L206.863 58.619L207.037 58.6978L207.21 58.773L207.386 58.8482L207.56 58.9198L207.736 58.9914L207.913 59.063L208.09 59.1346L208.267 59.2026L208.447 59.2671L208.624 59.3315L208.805 59.3959L208.985 59.4604L209.166 59.5213L209.347 59.5821L209.527 59.6394L209.712 59.6967L209.892 59.754L210.077 59.8077L210.261 59.8614L210.442 59.9115L210.626 59.9616L210.814 60.0117L210.998 60.0583L211.183 60.1048L211.367 60.1478L211.555 60.1908L211.743 60.2337L211.928 60.2731L212.116 60.3125L212.304 60.3519L212.492 60.3877L212.68 60.4199L212.868 60.4521L213.056 60.4843L213.245 60.5166L213.436 60.5452H213.568C215.913 60.8198 218.276 60.9299 220.638 60.8746H228.817H268.891C269.89 60.8999 270.889 60.8496 271.879 60.7242C272.794 60.573 273.69 60.333 274.554 60.0082C276.489 59.3122 278.327 58.391 280.024 57.2657C283.122 55.1943 285.701 52.4985 287.578 49.3703C289.456 46.2421 290.585 42.7585 290.887 39.1675C290.984 38.5731 291.003 37.9681 290.999 37.3845Z" fill="#0C9854"/>
<path d="M234.905 21.3199H131.513C123.7 21.3199 117.366 27.3469 117.366 34.7816V249.526C117.366 256.96 123.7 262.988 131.513 262.988H234.905C242.718 262.988 249.052 256.96 249.052 249.526V34.7816C249.052 27.3469 242.718 21.3199 234.905 21.3199Z" fill="#516582"/>
<path opacity="0.3" d="M249.428 34.4236V37.2878C249.429 35.5199 249.063 33.7691 248.353 32.1357C247.642 30.5022 246.6 29.018 245.286 27.7679C243.972 26.5177 242.413 25.5261 240.696 24.8498C238.979 24.1734 237.14 23.8256 235.282 23.826H131.889C130.031 23.8256 128.192 24.1734 126.475 24.8498C124.758 25.5261 123.199 26.5177 121.885 27.7679C120.571 29.018 119.529 30.5022 118.818 32.1357C118.108 33.7691 117.742 35.5199 117.742 37.2878V34.4236C117.742 32.6557 118.108 30.9049 118.818 29.2715C119.529 27.638 120.571 26.1538 121.885 24.9036C123.199 23.6535 124.758 22.6619 126.475 21.9856C128.192 21.3092 130.031 20.9614 131.889 20.9618H235.282C237.14 20.9614 238.979 21.3092 240.696 21.9856C242.413 22.6619 243.972 23.6535 245.286 24.9036C246.6 26.1538 247.642 27.638 248.353 29.2715C249.063 30.9049 249.429 32.6557 249.428 34.4236Z" fill="#233449"/>
<path d="M234.277 27.3598H132.375C127.007 27.3598 122.656 31.5002 122.656 36.6076V247.428C122.656 252.535 127.007 256.676 132.375 256.676H234.277C239.644 256.676 243.995 252.535 243.995 247.428V36.6076C243.995 31.5002 239.644 27.3598 234.277 27.3598Z" fill="white"/>
<path d="M131.001 255.197C131.001 255.197 128.096 240.16 142.288 212.481C142.288 212.481 150.25 209.846 148.519 201.611L151.883 197.175L159.426 187.222L167.327 176.778C171.895 170.756 176.418 164.827 179.713 158.057C180.89 155.64 181.934 153.167 182.84 150.646C183.239 149.532 183.186 148.316 182.69 147.238L180.402 142.268L126.019 217.422L120.827 247.055L121.204 249.676C121.204 249.676 129.616 254.867 131.001 255.197Z" fill="#CFD2E8"/>
<path d="M235.026 264.105H131.641C127.541 264.101 123.611 262.55 120.712 259.792C117.813 257.034 116.182 253.294 116.177 249.393V34.6456C116.182 30.7444 117.813 27.0044 120.712 24.2458C123.611 21.4873 127.541 19.9355 131.641 19.9307H235.026C239.125 19.9355 243.055 21.4874 245.953 24.2461C248.852 27.0047 250.482 30.7448 250.486 34.6456V249.393C250.482 253.294 248.851 257.033 245.953 259.792C243.055 262.55 239.125 264.101 235.026 264.105ZM131.641 22.4369C128.239 22.4407 124.978 23.7282 122.573 26.0169C120.168 28.3057 118.815 31.4088 118.811 34.6456V249.393C118.815 252.63 120.168 255.732 122.573 258.021C124.979 260.309 128.24 261.596 131.641 261.598H235.026C238.426 261.595 241.686 260.308 244.091 258.019C246.495 255.731 247.848 252.629 247.852 249.393V34.6456C247.849 31.4091 246.497 28.306 244.092 26.0172C241.687 23.7283 238.427 22.4407 235.026 22.4369H131.641Z" fill="#1B3C47"/>
<path d="M243.619 35.623V248.412C243.619 249.627 243.368 250.83 242.88 251.952C242.392 253.074 241.676 254.094 240.773 254.952C239.871 255.811 238.799 256.493 237.62 256.957C236.441 257.422 235.177 257.661 233.9 257.66H132.017C130.214 257.661 128.447 257.184 126.913 256.283C125.379 255.382 124.14 254.092 123.333 252.558C124.684 253.208 126.177 253.545 127.69 253.543H229.573C230.85 253.543 232.114 253.304 233.293 252.84C234.472 252.375 235.544 251.694 236.447 250.835C237.349 249.976 238.065 248.957 238.553 247.835C239.041 246.712 239.292 245.51 239.292 244.295V31.5236C239.294 30.0835 238.94 28.6631 238.257 27.3777C239.866 28.1438 241.22 29.3207 242.167 30.7768C243.114 32.2328 243.616 33.9107 243.619 35.623Z" fill="#CFD2E8"/>
<path d="M233.761 257.571H132.89C130.062 257.567 127.351 256.495 125.353 254.59C123.355 252.686 122.234 250.104 122.235 247.413V36.6076C122.238 33.919 123.361 31.3413 125.359 29.4399C127.356 27.5384 130.065 26.4685 132.89 26.4647H233.761C236.587 26.4675 239.297 27.5371 241.295 29.4386C243.293 31.3402 244.417 33.9184 244.42 36.6076V247.413C244.421 250.105 243.299 252.687 241.3 254.592C239.302 256.496 236.59 257.568 233.761 257.571ZM132.89 28.2548C130.563 28.2577 128.333 29.1387 126.688 30.7046C125.043 32.2706 124.118 34.3935 124.116 36.6076V247.413C124.118 249.627 125.043 251.75 126.688 253.316C128.333 254.882 130.563 255.763 132.89 255.766H233.761C236.088 255.763 238.319 254.882 239.965 253.317C241.61 251.751 242.536 249.628 242.539 247.413V36.6076C242.536 34.3932 241.61 32.2703 239.965 30.7044C238.319 29.1386 236.088 28.2577 233.761 28.2548H132.89Z" fill="#1B3C47"/>
<path d="M145.961 27.7643H221.21C221.21 31.7524 219.545 35.5772 216.582 38.3972C213.618 41.2172 209.599 42.8014 205.408 42.8014H161.763C157.572 42.8014 153.553 41.2172 150.589 38.3972C147.626 35.5772 145.961 31.7524 145.961 27.7643Z" fill="#516582"/>
<path opacity="0.3" d="M148.971 36.9692C149.377 37.4737 149.819 37.9521 150.291 38.4013C151.757 39.7996 153.499 40.9086 155.417 41.6643C157.334 42.42 159.39 42.8077 161.466 42.805H205.11C209.301 42.805 213.321 41.2208 216.284 38.4007C219.248 35.5807 220.913 31.756 220.913 27.7679H217.839C217.177 31.2333 215.258 34.3676 212.416 36.6243C209.574 38.881 205.99 40.1168 202.289 40.1162H158.644C155.141 40.1218 151.737 39.0142 148.971 36.9692Z" fill="#213144"/>
<path d="M205.148 43.5175H161.503C157.064 43.5127 152.808 41.8327 149.67 38.8458C146.531 35.859 144.765 31.8093 144.76 27.5853V26.6902H221.891V27.5853C221.886 31.8093 220.12 35.859 216.981 38.8458C213.842 41.8327 209.587 43.5127 205.148 43.5175ZM146.69 28.4804C146.934 32.0674 148.602 35.432 151.356 37.8919C154.11 40.3518 157.745 41.723 161.522 41.7273H205.166C208.944 41.723 212.578 40.3518 215.332 37.8919C218.087 35.432 219.755 32.0674 219.998 28.4804H146.69Z" fill="#1B3C47"/>
<path d="M191.979 34.9249H169.781C169.531 34.9249 169.292 34.8305 169.116 34.6627C168.939 34.4948 168.84 34.2672 168.84 34.0298C168.84 33.7924 168.939 33.5647 169.116 33.3969C169.292 33.229 169.531 33.1347 169.781 33.1347H191.979C192.229 33.1347 192.468 33.229 192.645 33.3969C192.821 33.5647 192.92 33.7924 192.92 34.0298C192.92 34.2672 192.821 34.4948 192.645 34.6627C192.468 34.8305 192.229 34.9249 191.979 34.9249Z" fill="#1B3C47"/>
<path d="M195.746 34.9248C195.684 34.9303 195.623 34.9303 195.561 34.9248C195.501 34.9136 195.442 34.8968 195.384 34.8747C195.328 34.8516 195.274 34.8241 195.223 34.7924C195.171 34.7603 195.123 34.7231 195.08 34.6814C194.992 34.5985 194.922 34.4998 194.874 34.391C194.826 34.2822 194.802 34.1655 194.802 34.0477C194.802 33.9298 194.826 33.8131 194.874 33.7043C194.922 33.5956 194.992 33.4969 195.08 33.414C195.123 33.3723 195.171 33.3351 195.223 33.303C195.273 33.27 195.327 33.2424 195.384 33.2206C195.442 33.1985 195.501 33.1818 195.561 33.1705C195.759 33.1336 195.964 33.1581 196.146 33.2404C196.328 33.3227 196.477 33.4585 196.572 33.6277C196.667 33.797 196.702 33.9907 196.673 34.1804C196.643 34.3701 196.55 34.5457 196.408 34.6814C196.364 34.7231 196.316 34.7603 196.265 34.7924C196.213 34.8241 196.159 34.8516 196.103 34.8747C196.046 34.8968 195.987 34.9136 195.926 34.9248C195.866 34.9301 195.806 34.9301 195.746 34.9248Z" fill="#1B3C47"/>
<path d="M61.1173 187.623C55.7747 187.981 50.1498 188.697 45.1495 190.587C29.3923 196.552 33.3956 214.901 31.394 228.438L51.7112 226.29L53.1297 292.356C53.1532 293.451 53.6257 294.493 54.4462 295.261C55.2667 296.028 56.37 296.459 57.5204 296.463H120.673C121.842 296.463 122.962 296.021 123.789 295.235C124.615 294.449 125.079 293.382 125.079 292.27V281.426C125.079 229.87 140.129 207.443 140.129 207.443V187.444L61.1173 187.623Z" fill="white"/>
<path d="M140.512 186.728V206.727C140.512 206.727 125.463 229.154 125.463 280.71V291.554C125.463 292.106 125.348 292.651 125.127 293.16C124.905 293.67 124.579 294.132 124.17 294.521C123.76 294.911 123.273 295.22 122.738 295.43C122.202 295.64 121.628 295.748 121.049 295.747H57.8965C56.9925 295.748 56.1102 295.484 55.3697 294.99C54.6291 294.497 54.0663 293.799 53.7578 292.99C54.2402 293.156 54.7496 293.241 55.2627 293.241H118.416C119.584 293.241 120.705 292.799 121.531 292.013C122.357 291.227 122.821 290.16 122.821 289.048V278.204C122.821 226.648 137.871 204.221 137.871 204.221V186.735L140.512 186.728Z" fill="#CFD2E8"/>
<path d="M123.74 187.415C115.624 196.448 103.799 202.302 90.63 202.302C77.1868 202.302 86.638 193.602 78.5337 184.361C78.5337 184.361 74.854 187.448 76.359 182.743C78.2816 176.728 101.756 175.812 101.756 175.812C101.756 175.812 112.125 191.289 123.74 187.415Z" fill="#CFD2E8"/>
<path d="M119.853 297H57.5917C56.0786 296.992 54.6281 296.424 53.5473 295.416C52.4666 294.409 51.8403 293.04 51.8013 291.601L50.4167 226.931L29.9188 229.097L30.0844 227.955C30.5472 224.829 30.6826 221.51 30.8369 217.959C31.3109 206.269 31.8001 194.182 44.4381 189.399C48.7537 187.763 53.9195 186.803 60.6882 186.373H60.7296C61.087 186.373 69.5412 186.015 71.6407 176.9C71.6671 176.785 71.7171 176.676 71.7877 176.58C71.8584 176.483 71.9483 176.401 72.0525 176.337C72.1566 176.274 72.2728 176.23 72.3945 176.21C72.5163 176.189 72.6411 176.191 72.7619 176.216C72.8827 176.241 72.9971 176.289 73.0986 176.356C73.2001 176.423 73.2867 176.509 73.3534 176.608C73.4202 176.707 73.4657 176.818 73.4875 176.934C73.5093 177.049 73.507 177.168 73.4805 177.283C71.1328 187.501 61.4407 188.131 60.8161 188.164C54.2506 188.579 49.2691 189.503 45.1417 191.064C33.6399 195.417 33.1771 206.913 32.7256 218.034C32.6015 221.055 32.4773 224.167 32.1199 227.067L52.2528 224.933L53.6825 291.565C53.7098 292.537 54.1329 293.46 54.8623 294.14C55.5918 294.82 56.5705 295.204 57.5917 295.21H119.853C120.889 295.209 121.883 294.817 122.616 294.119C123.349 293.422 123.761 292.476 123.762 291.49V281.068C123.762 254.327 127.878 235.541 131.332 224.5C135.094 212.466 138.812 206.849 138.97 206.598C139.109 206.409 139.319 206.277 139.558 206.232C139.796 206.187 140.043 206.231 140.248 206.356C140.453 206.48 140.599 206.675 140.656 206.9C140.713 207.125 140.676 207.362 140.554 207.561C140.407 207.783 125.643 230.429 125.643 281.061V291.483C125.644 292.207 125.494 292.924 125.204 293.593C124.913 294.262 124.486 294.87 123.949 295.383C123.411 295.895 122.773 296.301 122.07 296.579C121.367 296.856 120.614 297 119.853 297Z" fill="#1B3C47"/>
<path d="M123.514 189.134C113.818 189.134 106.045 181.168 105.947 181.064C105.779 180.888 105.691 180.656 105.702 180.419C105.714 180.182 105.824 179.958 106.009 179.798C106.194 179.638 106.437 179.555 106.687 179.566C106.936 179.577 107.171 179.682 107.339 179.857C107.448 179.976 118.671 191.45 130.29 185.754C130.51 185.657 130.761 185.644 130.991 185.719C131.221 185.794 131.411 185.95 131.522 186.156C131.634 186.361 131.657 186.599 131.588 186.821C131.519 187.042 131.363 187.229 131.152 187.344C128.794 188.517 126.174 189.132 123.514 189.134Z" fill="#1B3C47"/>
<path d="M115.952 77.6839C108.921 72.1628 100.289 68.8119 91.2058 68.0781C90.7205 68.0351 90.2276 67.9957 89.7347 67.9671C89.1139 67.9313 88.4856 67.9062 87.8535 67.8919C87.4773 67.8919 87.101 67.8919 86.7022 67.8919C86.3034 67.8919 85.9309 67.8919 85.5509 67.8919C85.1709 67.8919 84.8699 67.8919 84.5312 67.9241H84.219C83.8766 67.9241 83.5342 67.9599 83.1918 67.9814H83.0376C82.6989 68.0065 82.3603 68.0315 82.0217 68.0638H81.9239C81.6755 68.0852 81.4272 68.1103 81.1714 68.1389C80.7048 68.1891 80.2421 68.2428 79.783 68.3036L79.4632 68.3502C79.2074 68.386 78.9515 68.4218 78.7107 68.4647L78.2329 68.5399L77.4578 68.676L77.0553 68.7512C76.8257 68.7941 76.6 68.8371 76.3742 68.8872L75.7873 69.0125C75.5917 69.0519 75.4111 69.0949 75.2041 69.145L74.7301 69.256C74.6435 69.2739 74.5532 69.2954 74.4667 69.3204C58.7434 73.2265 46.7825 84.5294 41.6957 98.6249C41.6618 98.7144 41.628 98.8039 41.6016 98.8934C40.4861 102.06 39.7293 105.33 39.3442 108.65C38.7132 114.008 39.0388 119.43 40.3074 124.686C40.3563 124.904 40.4127 125.119 40.4691 125.337C40.5406 125.631 40.6196 125.928 40.7024 126.222C40.8002 126.58 40.9018 126.938 41.0072 127.296L42.5949 134.277L43.0389 136.203L44.3746 141.993L45.3641 141.964L46.1166 141.939L49.5028 141.839L81.811 140.879H81.9878L91.1381 140.607L128.627 139.494L130.975 129.583L131.419 127.711L131.942 125.502C132.002 125.244 132.062 124.983 132.119 124.725C132.244 124.166 132.357 123.608 132.457 123.049C134.339 112.846 134.843 102.134 130.843 93.5087C127.879 87.0606 121.561 82.102 115.952 77.6839ZM78.5414 130.489L78.4586 130.521C78.5806 129.769 78.641 129.009 78.6392 128.248C78.6456 127.057 78.4913 125.871 78.1802 124.718C78.0434 124.214 77.8686 123.719 77.6572 123.239C78.5204 123.362 79.317 123.753 79.9238 124.35C80.5306 124.947 80.9139 125.717 81.0145 126.542C81.1151 127.367 80.9274 128.201 80.4804 128.914C80.0334 129.628 79.352 130.181 78.5414 130.489Z" fill="#B0D7E9"/>
<path d="M47.7381 149.601L41.7971 133.396C41.7332 133.228 41.6655 133.038 41.6015 132.87L41.5225 132.662C40.784 130.63 40.1561 128.563 39.6413 126.469C39.5698 126.179 39.4983 125.889 39.4343 125.591C39.3816 125.38 39.329 125.155 39.2838 124.925C37.9798 119.096 37.7165 113.098 38.505 107.185V107.117C38.9017 104.231 39.5742 101.384 40.5141 98.6141C40.548 98.5067 40.5856 98.3993 40.627 98.2955C43.1213 91.022 47.5001 84.4634 53.3595 79.2243C59.2189 73.9852 66.3704 70.2345 74.1543 68.3179C74.2571 68.2893 74.3587 68.2642 74.459 68.2428L74.9368 68.1318C75.1174 68.0852 75.3319 68.0387 75.5464 67.9957L76.1333 67.8668C76.3478 67.8203 76.5848 67.7737 76.8294 67.7308L77.2357 67.652L78.0333 67.5124L78.1951 67.4873L78.5413 67.4336C78.767 67.3942 79.0342 67.3584 79.2938 67.319H79.4254L79.6211 67.2904C80.0876 67.2295 80.5617 67.1723 81.0358 67.1221C81.2841 67.0935 81.5437 67.0649 81.7883 67.0434H81.9124L82.917 66.9646H83.075C83.4513 66.9395 83.7861 66.9181 84.136 66.9037H84.4596C84.7945 66.9037 85.1406 66.8787 85.4943 66.8715C86.2694 66.8715 87.067 66.8715 87.8421 66.8715C88.4892 66.8715 89.1364 66.9109 89.7684 66.9503C104.224 67.8167 117.204 75.1849 125.391 87.168C126.042 88.1168 127.182 88.8328 128.401 89.5883C130.034 90.6086 131.724 91.6648 132.517 93.4836C136.114 101.718 135.151 112.649 133.578 123.25C133.507 123.758 133.417 124.324 133.3 124.958C133.138 125.831 132.961 126.687 132.766 127.507L132.393 140.446L131.14 140.586L47.7381 149.601ZM40.7587 107.328V107.4C39.9954 113.099 40.2498 118.881 41.5112 124.499C41.5563 124.718 41.6015 124.922 41.6504 125.13C41.7181 125.423 41.7821 125.699 41.8536 125.978C42.3538 127.999 42.9642 129.993 43.6821 131.954L43.7574 132.158L43.9493 132.677L49.2807 147.273L130.173 138.527L130.523 127.177L130.55 127.074C130.742 126.261 130.926 125.405 131.08 124.535C131.193 123.923 131.28 123.386 131.351 122.899C132.879 112.591 133.827 101.994 130.441 94.2569C129.914 93.0468 128.582 92.2162 127.171 91.3319C125.82 90.4869 124.421 89.6169 123.518 88.2922C115.617 76.7172 103.577 69.8825 89.6556 69.0447C89.0536 69.0125 88.4328 68.9875 87.8195 68.9731C87.067 68.9731 86.3145 68.9731 85.562 68.9731C85.2309 68.9731 84.8998 68.9839 84.5687 69.0054H84.2903L83.2556 69.0626H83.1127C82.7816 69.0877 82.4542 69.1128 82.1231 69.145H82.014C81.777 69.1665 81.5437 69.1879 81.3104 69.2166C80.8401 69.2667 80.3886 69.3204 79.9371 69.3777L79.6211 69.4242L78.8987 69.5317L78.5751 69.5818L78.4058 69.6104C78.1613 69.6498 77.9092 69.6963 77.6533 69.7429L77.2583 69.8145C77.0401 69.8575 76.8256 69.8968 76.6149 69.9434L76.0242 70.0687C75.8285 70.1081 75.6479 70.1475 75.4786 70.194L74.997 70.305H74.9557C74.8958 70.3155 74.8367 70.3299 74.7788 70.3479H74.7299C67.3032 72.175 60.48 75.7533 54.8905 80.7524C49.3009 85.7515 45.1252 92.0103 42.749 98.9506C42.7152 99.0437 42.6888 99.1082 42.67 99.1726V99.212C41.7769 101.857 41.1372 104.574 40.7587 107.328ZM77.0024 132.294L77.3448 130.353C77.4564 129.656 77.5118 128.953 77.5104 128.248C77.5159 127.149 77.3743 126.054 77.089 124.99C76.9658 124.536 76.8086 124.091 76.6187 123.658L75.8323 121.897L77.8226 122.176C78.9326 122.33 79.9582 122.828 80.7409 123.592C81.5236 124.357 82.0197 125.345 82.1525 126.405C82.2853 127.465 82.0473 128.537 81.4755 129.455C80.9036 130.373 80.0297 131.086 78.989 131.484L78.8837 131.527L77.0024 132.294ZM79.5421 125.638C79.672 126.372 79.7462 127.114 79.7641 127.858C79.864 127.575 79.9148 127.279 79.9146 126.981C79.9157 126.51 79.7873 126.047 79.5421 125.638Z" fill="#1B3C47"/>
<path d="M67.175 185.403L67.3556 185.203C67.3005 185.339 67.2478 185.475 67.1976 185.611C67.1788 185.475 67.175 185.403 67.175 185.403Z" fill="#C0E5F2"/>
<path d="M47.5009 119.05C47.2515 119.05 47.0122 118.956 46.8358 118.788C46.6594 118.62 46.5603 118.393 46.5603 118.155V107.425C46.5603 107.188 46.6594 106.96 46.8358 106.792C47.0122 106.624 47.2515 106.53 47.5009 106.53C47.7504 106.53 47.9896 106.624 48.166 106.792C48.3424 106.96 48.4415 107.188 48.4415 107.425V118.166C48.4386 118.401 48.3381 118.626 48.1621 118.792C47.986 118.957 47.7484 119.05 47.5009 119.05Z" fill="#1B3C47"/>
<path d="M47.5009 103.415C47.2515 103.415 47.0122 103.321 46.8358 103.153C46.6594 102.985 46.5603 102.758 46.5603 102.52V98.5067C46.5603 98.2693 46.6594 98.0417 46.8358 97.8738C47.0122 97.7059 47.2515 97.6116 47.5009 97.6116C47.7504 97.6116 47.9896 97.7059 48.166 97.8738C48.3424 98.0417 48.4415 98.2693 48.4415 98.5067V102.52C48.4415 102.758 48.3424 102.985 48.166 103.153C47.9896 103.321 47.7504 103.415 47.5009 103.415Z" fill="#1B3C47"/>
<path d="M92.4774 89.3484C97.5447 90.3808 102.303 92.4855 106.399 95.5064C107.55 96.3514 108.675 94.4861 107.527 93.6519C103.264 90.5254 98.32 88.3467 93.0569 87.2754C91.6384 86.989 91.0364 89.0656 92.4549 89.3484H92.4774Z" fill="white"/>
<path d="M142.33 132.236V134.868C142.33 136.862 141.497 138.774 140.016 140.184C138.534 141.594 136.524 142.386 134.429 142.386H37.9556C37.8816 142.39 37.8075 142.39 37.7336 142.386C36.2399 142.352 34.7879 141.911 33.5497 141.115C32.4729 140.427 31.5908 139.497 30.9812 138.407C30.3716 137.318 30.0533 136.102 30.0544 134.868V132.236C30.0544 130.242 30.8869 128.33 32.3686 126.92C33.8504 125.51 35.8601 124.718 37.9556 124.718H78.18C78.491 125.871 78.6453 127.057 78.639 128.248C78.6407 129.009 78.5804 129.769 78.4584 130.521L78.5412 130.489C79.1074 130.275 79.6142 129.939 80.0222 129.509C80.4302 129.078 80.7286 128.564 80.8941 128.006C81.0596 127.448 81.0879 126.861 80.9768 126.291C80.8656 125.72 80.618 125.182 80.2531 124.718H134.432C136.527 124.719 138.536 125.511 140.017 126.921C141.498 128.331 142.33 130.243 142.33 132.236Z" fill="#F4CEAE"/>
<path opacity="0.5" d="M141.446 134.048C141.447 135.208 141.208 136.357 140.742 137.429C140.276 138.501 139.592 139.475 138.729 140.296C138.379 140.628 138.001 140.935 137.601 141.212C137.971 139.456 137.972 137.647 137.604 135.891C137.236 134.134 136.507 132.464 135.458 130.977C134.408 129.49 133.06 128.216 131.491 127.227C129.921 126.238 128.162 125.554 126.313 125.215H132.175C134.635 125.218 136.993 126.15 138.731 127.806C140.47 129.462 141.446 131.707 141.446 134.048Z" fill="#CC6F65"/>
<path d="M38.4633 127.901C36.367 129.892 35.1743 132.586 35.1413 135.405C35.1082 138.223 36.2374 140.942 38.2865 142.977C35.9321 142.721 33.7699 141.617 32.2431 139.893C30.7164 138.168 29.9406 135.953 30.0748 133.702C30.209 131.45 31.2431 129.333 32.965 127.784C34.687 126.235 36.9664 125.371 39.3362 125.369H42.6471C41.0737 125.91 39.645 126.774 38.4633 127.901Z" fill="#FCDFCA"/>
<path d="M133.048 143.46H39.3366C38.6814 143.46 38.0277 143.401 37.3839 143.285C35.0727 142.856 32.9809 141.699 31.4463 139.999C29.9116 138.3 29.0237 136.158 28.9259 133.919C28.9259 133.797 28.9259 133.672 28.9259 133.561C28.9269 130.933 30.0245 128.413 31.9774 126.555C33.9302 124.696 36.5786 123.652 39.3404 123.651H133.048C135.809 123.655 138.455 124.7 140.407 126.558C142.358 128.416 143.456 130.934 143.459 133.561C143.457 136.188 142.359 138.707 140.407 140.564C138.455 142.421 135.809 143.466 133.048 143.468V143.46ZM39.3366 125.792C38.2651 125.792 37.2042 125.994 36.2145 126.384C35.2248 126.775 34.3257 127.348 33.5685 128.069C32.8114 128.791 32.211 129.647 31.8018 130.589C31.3925 131.532 31.1824 132.541 31.1834 133.561C31.1834 133.658 31.1834 133.754 31.1834 133.851C31.2603 135.603 31.9557 137.28 33.1572 138.609C34.3587 139.939 35.9963 140.845 37.8053 141.18C38.3086 141.273 38.8202 141.32 39.3329 141.319H133.048C135.181 141.276 137.21 140.439 138.702 138.989C140.194 137.538 141.03 135.589 141.03 133.559C141.03 131.53 140.194 129.581 138.702 128.13C137.21 126.679 135.181 125.843 133.048 125.799H82.0179C82.3179 126.934 82.1766 128.135 81.62 129.179C81.0634 130.223 80.1291 131.041 78.9891 131.481L78.8838 131.524L77.0026 132.301L77.345 130.36C77.4566 129.664 77.5119 128.96 77.5105 128.255C77.5125 127.431 77.4344 126.609 77.2772 125.799L39.3366 125.792ZM79.5422 125.638C79.6721 126.372 79.7463 127.114 79.7642 127.858C79.8641 127.575 79.9149 127.279 79.9147 126.981C79.9159 126.51 79.7875 126.047 79.5422 125.638Z" fill="#1B3C47"/>
<path d="M118.499 87.7802C114.399 83.8688 109.527 80.7668 104.163 78.6526C98.7994 76.5384 93.0495 75.4536 87.2438 75.4606H87.0256C75.3387 75.5098 64.1485 79.9636 55.905 87.8469C47.6615 95.7301 43.0364 106.4 43.0425 117.521V146.966C43.0581 156.82 46.6133 166.372 53.1184 174.039L53.1372 174.061C61.2453 183.642 73.5146 189.868 87.2438 189.868C111.658 189.868 131.449 169.775 131.449 146.547V117.525C131.456 112 130.315 106.528 128.093 101.423C125.87 96.3184 122.61 91.682 118.499 87.7802ZM81.0433 126.726C81.0431 127.482 80.8046 128.221 80.3585 128.846C79.9124 129.472 79.2794 129.956 78.5413 130.235L78.4585 130.267C78.5805 129.515 78.6408 128.755 78.6391 127.994C78.6454 126.803 78.4911 125.617 78.1801 124.464C78.0433 123.959 77.8685 123.465 77.6571 122.985C78.5988 123.12 79.4584 123.571 80.0798 124.258C80.7012 124.944 81.0431 125.82 81.0433 126.726Z" fill="#F4CEAE"/>
<path opacity="0.5" d="M131.34 118.069V147.094C131.34 170.327 111.553 190.416 87.1383 190.416C86.1751 190.416 85.2169 190.386 84.2638 190.326C107.339 188.919 125.594 169.407 125.594 147.091V118.069C125.593 107.387 121.322 97.105 113.646 89.3097C105.971 81.5145 95.4659 76.7898 84.2638 76.0943C85.2144 76.037 86.1726 76.0084 87.1383 76.0084C98.8612 76.0084 110.104 80.4398 118.393 88.3277C126.683 96.2157 131.34 106.914 131.34 118.069Z" fill="#CC6F65"/>
<path d="M81.2764 190.011C80.3923 190.09 79.5006 189.052 78.6051 189.052C58.9237 189.052 42.9709 168.039 42.9709 145.397V117.113C42.9709 94.4718 58.9237 76.1193 78.6051 76.1193C79.5006 76.1193 80.3923 76.1551 81.2764 76.2339C62.8404 77.8021 45.6046 94.7904 45.6046 116.397L45.7927 148.462C45.7927 170.08 62.8479 188.443 81.2764 190.011Z" fill="#FCEADE"/>
<path d="M50.7858 173.957C50.6061 173.957 50.429 173.916 50.2693 173.837C50.1097 173.759 49.972 173.645 49.8677 173.506C49.1153 172.518 48.423 171.487 47.7721 170.445C47.6934 170.324 47.6409 170.188 47.6177 170.048C47.5945 169.907 47.601 169.763 47.6368 169.624C47.6726 169.486 47.7371 169.356 47.8264 169.241C47.9158 169.126 48.0281 169.03 48.1571 168.957C48.286 168.885 48.4288 168.837 48.5773 168.817C48.7257 168.798 48.8768 168.806 49.0216 168.843C49.1665 168.879 49.3023 168.943 49.4211 169.03C49.5399 169.117 49.6393 169.225 49.7135 169.349C50.3305 170.341 51.0002 171.318 51.7038 172.257C51.7902 172.371 51.852 172.501 51.8855 172.639C51.919 172.777 51.9237 172.919 51.8992 173.059C51.8748 173.198 51.8216 173.331 51.7429 173.451C51.6642 173.571 51.5614 173.675 51.4405 173.757C51.2495 173.887 51.0206 173.957 50.7858 173.957Z" fill="#1B3C47"/>
<path d="M45.8232 165.368C45.5986 165.368 45.3791 165.304 45.1928 165.185C45.0065 165.066 44.8618 164.897 44.7772 164.699C42.5859 159.547 41.4617 154.041 41.4662 148.484V117.779C41.4688 107.674 45.1969 97.8905 52.0011 90.1325C53.6668 88.2298 55.5036 86.4688 57.4905 84.8695L57.6109 84.7728C65.7833 78.2301 76.1201 74.642 86.8001 74.6407H87.0521C99.0316 74.7031 110.498 79.2759 118.945 87.3594C127.392 95.4429 132.132 106.38 132.13 117.779V148.484C132.133 151.759 131.745 155.023 130.971 158.215C130.895 158.483 130.712 158.713 130.461 158.856C130.21 158.999 129.91 159.044 129.626 158.98C129.341 158.917 129.093 158.751 128.934 158.518C128.775 158.284 128.718 158.001 128.774 157.728C129.507 154.696 129.876 151.595 129.873 148.484V117.779C129.875 106.944 125.367 96.5493 117.336 88.8683C109.305 81.1873 98.4046 76.8454 87.0183 76.7924H86.8001C76.6369 76.7964 66.8027 80.2205 59.0369 86.4591L58.9729 86.5092C57.078 88.0315 55.3268 89.7087 53.7394 91.5216C47.2717 98.8932 43.7273 108.191 43.7237 117.794V148.498C43.7253 153.774 44.7932 159.001 46.8691 163.893C46.9388 164.056 46.9653 164.233 46.9463 164.408C46.9272 164.583 46.8632 164.751 46.7599 164.897C46.6566 165.043 46.5171 165.163 46.3537 165.246C46.1904 165.328 46.0082 165.372 45.8232 165.372V165.368Z" fill="#1B3C47"/>
<path d="M37.8955 137.288C37.7737 137.287 37.654 137.257 37.5468 137.202C37.4395 137.147 37.3479 137.068 37.2798 136.972C37.2117 136.876 37.1692 136.766 37.1558 136.65C37.1425 136.535 37.1588 136.419 37.2032 136.311C37.5891 135.325 37.6907 134.259 37.4975 133.223C37.3044 132.188 36.8234 131.22 36.1046 130.421C36.0342 130.351 35.9794 130.269 35.9435 130.179C35.9075 130.088 35.8912 129.992 35.8955 129.895C35.8997 129.799 35.9245 129.704 35.9683 129.617C36.012 129.529 36.0739 129.451 36.1502 129.388C36.2264 129.324 36.3155 129.275 36.412 129.245C36.5085 129.215 36.6104 129.203 36.7116 129.212C36.8128 129.22 36.9112 129.248 37.0009 129.293C37.0905 129.338 37.1696 129.401 37.2333 129.476C38.1305 130.474 38.7309 131.682 38.9724 132.975C39.2138 134.268 39.0876 135.599 38.6066 136.83C38.5514 136.966 38.4536 137.083 38.3265 137.165C38.1994 137.247 38.049 137.29 37.8955 137.288Z" fill="#1B3C47"/>
<path d="M33.7643 134.678C33.6245 134.678 33.4876 134.641 33.3687 134.571C33.2498 134.501 33.1537 134.401 33.0912 134.282C33.0287 134.163 33.0023 134.03 33.0148 133.898C33.0274 133.765 33.0784 133.639 33.1623 133.532C33.682 132.882 34.3734 132.373 35.1664 132.059C35.9593 131.744 36.8256 131.635 37.6772 131.742C37.7761 131.755 37.8712 131.787 37.9572 131.835C38.0432 131.883 38.1184 131.947 38.1785 132.023C38.2386 132.099 38.2824 132.185 38.3074 132.277C38.3325 132.369 38.3382 132.465 38.3244 132.559C38.3105 132.653 38.2774 132.743 38.2268 132.825C38.1762 132.907 38.1091 132.978 38.0295 133.036C37.9498 133.093 37.8591 133.134 37.7625 133.158C37.6659 133.182 37.5654 133.188 37.4665 133.174C36.88 133.103 36.2842 133.18 35.7383 133.396C35.1924 133.612 34.7155 133.96 34.355 134.406C34.2845 134.491 34.1948 134.559 34.0925 134.607C33.9901 134.654 33.878 134.678 33.7643 134.678Z" fill="#1B3C47"/>
<path d="M135.121 137.37C134.969 137.371 134.82 137.327 134.695 137.245C134.569 137.163 134.472 137.047 134.418 136.912C133.934 135.682 133.806 134.352 134.045 133.059C134.285 131.765 134.884 130.557 135.78 129.558C135.843 129.483 135.922 129.421 136.012 129.375C136.102 129.33 136.2 129.302 136.301 129.294C136.403 129.286 136.504 129.297 136.601 129.327C136.697 129.358 136.786 129.406 136.863 129.47C136.939 129.534 137.001 129.612 137.045 129.699C137.088 129.786 137.113 129.881 137.117 129.977C137.122 130.074 137.105 130.17 137.069 130.261C137.034 130.351 136.979 130.434 136.908 130.503C136.189 131.302 135.707 132.27 135.513 133.305C135.32 134.341 135.421 135.407 135.806 136.393C135.88 136.567 135.879 136.762 135.804 136.935C135.729 137.108 135.585 137.247 135.403 137.32C135.314 137.354 135.218 137.371 135.121 137.37Z" fill="#1B3C47"/>
<path d="M139.252 134.76C139.135 134.761 139.019 134.735 138.914 134.686C138.809 134.636 138.717 134.563 138.647 134.474C138.287 134.027 137.81 133.678 137.264 133.462C136.718 133.245 136.122 133.168 135.535 133.239C135.336 133.265 135.133 133.215 134.972 133.1C134.811 132.985 134.705 132.813 134.677 132.623C134.649 132.433 134.702 132.24 134.823 132.087C134.945 131.934 135.125 131.833 135.324 131.807C136.176 131.702 137.041 131.812 137.834 132.126C138.626 132.44 139.318 132.948 139.839 133.597C139.923 133.703 139.974 133.83 139.987 133.962C139.999 134.095 139.973 134.228 139.91 134.347C139.848 134.466 139.752 134.566 139.633 134.636C139.514 134.706 139.377 134.743 139.237 134.743L139.252 134.76Z" fill="#1B3C47"/>
<path d="M64.0334 181.257L64.2441 181.025C64.1802 181.182 64.1162 181.34 64.0598 181.501C64.0372 181.343 64.0334 181.257 64.0334 181.257Z" fill="#C0E5F2"/>
<path d="M91.1793 140.242C91.1924 141.438 90.706 142.59 89.827 143.445C88.948 144.301 87.7483 144.789 86.4913 144.803C83.8952 144.803 81.7957 141.917 81.7957 139.4L91.1793 140.242Z" fill="#F4CEAE"/>
<path d="M120.839 99.1905C117.361 92.6745 112.161 87.1316 105.751 83.1066C99.34 79.0817 91.9392 76.7132 84.2754 76.2339C83.3085 76.2948 82.3528 76.3843 81.4009 76.4988C89.6904 77.5264 97.501 80.7788 103.919 85.8756L105.375 87.0821C105.898 87.5332 106.414 87.9915 106.91 88.4677C109.948 91.3551 112.529 94.6476 114.571 98.2418C104.484 95.5458 98.1815 88.1562 98.1815 88.1562C90.2803 94.6006 98.5577 97.8229 98.5577 97.8229L90.6565 100.687C73.3493 104.267 72.5968 86.366 72.5968 86.366L60.6171 93.9705L48.8933 98.897C61.3094 100.687 70.7155 90.3043 70.7155 90.3043C70.7155 93.8846 70.313 99.3159 80.4979 103.193C91.7853 107.49 103.073 97.8229 103.073 97.8229C97.0527 96.0328 98.1815 92.4525 98.1815 92.0945C103.103 97.8802 112.031 100.057 115.884 100.759C118.512 106.236 119.868 112.188 119.861 118.209V147.234C119.861 168.615 103.103 187.526 81.4009 190.197C82.3528 190.315 83.3085 190.405 84.2754 190.462C107.351 189.055 125.621 169.117 125.621 146.808V118.198C125.662 111.775 124.157 104.257 120.956 98.675" fill="#FFB594"/>
<path d="M81.6226 131.95L86.5137 125.147L82.375 120.493C82.375 120.493 76.3551 119.061 75.9789 119.777C75.6026 120.493 73.3452 128.012 73.3452 128.012L76.7314 134.814L81.6226 131.95Z" fill="#F4CEAE"/>
<path d="M113.746 130.579C113.746 125.734 109.619 121.807 104.528 121.807C99.4374 121.807 95.3104 125.734 95.3104 130.579V133.561C95.3104 138.405 99.4374 142.333 104.528 142.333C109.619 142.333 113.746 138.405 113.746 133.561V130.579Z" fill="white"/>
<path d="M104.532 136.78C107.022 136.78 109.04 134.859 109.04 132.491C109.04 130.122 107.022 128.201 104.532 128.201C102.043 128.201 100.025 130.122 100.025 132.491C100.025 134.859 102.043 136.78 104.532 136.78Z" fill="#274B5B"/>
<path d="M103.242 130.654C105.021 130.654 106.463 129.282 106.463 127.589C106.463 125.897 105.021 124.524 103.242 124.524C101.463 124.524 100.021 125.897 100.021 127.589C100.021 129.282 101.463 130.654 103.242 130.654Z" fill="white"/>
<path d="M105.529 135.881C106.144 135.881 106.643 135.407 106.643 134.821C106.643 134.236 106.144 133.762 105.529 133.762C104.914 133.762 104.415 134.236 104.415 134.821C104.415 135.407 104.914 135.881 105.529 135.881Z" fill="white"/>
<path d="M77.6269 130.579C77.6269 125.734 73.4998 121.807 68.4088 121.807C63.3179 121.807 59.1908 125.734 59.1908 130.579V133.561C59.1908 138.405 63.3179 142.333 68.4088 142.333C73.4998 142.333 77.6269 138.405 77.6269 133.561V130.579Z" fill="white"/>
<path d="M68.409 143.826C65.7148 143.826 63.1309 142.807 61.2258 140.994C59.3207 139.181 58.2504 136.723 58.2504 134.159C58.2504 133.922 58.3495 133.694 58.5259 133.526C58.7023 133.358 58.9416 133.264 59.191 133.264C59.4405 133.264 59.6797 133.358 59.8561 133.526C60.0325 133.694 60.1316 133.922 60.1316 134.159C60.1316 136.248 61.0037 138.251 62.556 139.729C64.1083 141.206 66.2137 142.036 68.409 142.036C70.6043 142.036 72.7097 141.206 74.262 139.729C75.8144 138.251 76.6864 136.248 76.6864 134.159C76.6864 133.922 76.7855 133.694 76.9619 133.526C77.1383 133.358 77.3776 133.264 77.6271 133.264C77.8765 133.264 78.1158 133.358 78.2922 133.526C78.4686 133.694 78.5677 133.922 78.5677 134.159C78.5677 136.723 77.4974 139.181 75.5923 140.994C73.6872 142.807 71.1033 143.826 68.409 143.826Z" fill="#1B3C47"/>
<path d="M104.529 143.826C101.834 143.826 99.2504 142.807 97.3453 140.994C95.4402 139.181 94.3699 136.723 94.3699 134.159C94.3699 133.922 94.469 133.694 94.6454 133.526C94.8218 133.358 95.0611 133.264 95.3105 133.264C95.56 133.264 95.7993 133.358 95.9757 133.526C96.1521 133.694 96.2512 133.922 96.2512 134.159C96.2512 136.248 97.1232 138.251 98.6755 139.729C100.228 141.206 102.333 142.036 104.529 142.036C106.724 142.036 108.829 141.206 110.382 139.729C111.934 138.251 112.806 136.248 112.806 134.159C112.806 133.922 112.905 133.694 113.081 133.526C113.258 133.358 113.497 133.264 113.747 133.264C113.996 133.264 114.235 133.358 114.412 133.526C114.588 133.694 114.687 133.922 114.687 134.159C114.687 136.723 113.617 139.181 111.712 140.994C109.807 142.807 107.223 143.826 104.529 143.826Z" fill="#1B3C47"/>
<path d="M68.0367 136.78C70.5261 136.78 72.5441 134.859 72.5441 132.491C72.5441 130.122 70.5261 128.201 68.0367 128.201C65.5473 128.201 63.5293 130.122 63.5293 132.491C63.5293 134.859 65.5473 136.78 68.0367 136.78Z" fill="#274B5B"/>
<path d="M66.7461 130.654C68.5249 130.654 69.9668 129.282 69.9668 127.589C69.9668 125.897 68.5249 124.524 66.7461 124.524C64.9674 124.524 63.5255 125.897 63.5255 127.589C63.5255 129.282 64.9674 130.654 66.7461 130.654Z" fill="white"/>
<path d="M69.0334 135.881C69.6485 135.881 70.1471 135.407 70.1471 134.821C70.1471 134.236 69.6485 133.762 69.0334 133.762C68.4183 133.762 67.9197 134.236 67.9197 134.821C67.9197 135.407 68.4183 135.881 69.0334 135.881Z" fill="white"/>
<path d="M46.2559 99.0115L63.375 92.9609C69.1087 89.5496 74.2496 85.31 78.613 80.3942L73.4584 84.6905C76.1787 83.2083 69.9969 87.1967 72.593 85.7646C69.5831 95.0733 82.7517 107.962 98.3659 98.1165C98.3659 98.1165 92.805 93.7915 98.2304 88.6252C98.2304 88.6252 110.782 104.203 135.99 96.6844C135.99 96.6844 132.98 78.067 115.297 73.7707L127.713 69.4744C127.713 69.4744 105.515 48.7089 82.5635 62.6719V62.7077C81.8417 62.0187 80.9279 61.5404 79.9298 61.3293C79.9298 61.3293 79.9298 66.8393 77.0327 68.6796C77.0327 68.6796 60.6209 56.4279 40.345 69.904C40.345 69.904 49.6797 70.8206 49.6797 75.1097C49.6797 75.1097 34.231 80.3154 34.231 98.9972L42.1322 98.2812" fill="#0C9854"/>
<path d="M84.2564 64.641C84.2564 64.641 98.9299 53.9002 118.871 67.8633C118.871 67.8633 120.752 68.9373 120.376 68.9373C120 68.9373 103.821 74.6658 103.821 74.6658C103.821 74.6658 128.277 75.7398 132.04 96.5053H135.426C135.426 96.5053 132.416 76.4559 114.356 73.9497L127.901 69.6534C127.901 69.6534 110.217 51.7521 86.1376 60.3447L83.1276 61.4188L84.2564 64.641Z" fill="#E1F4F9"/>
<path d="M76.3554 68.9373C76.3554 68.9373 59.4244 61.7768 46.2558 68.9373C46.2558 68.9373 53.0282 70.3694 51.5232 76.8139C51.5232 76.8139 34.5921 83.2584 36.8496 98.6535L33.4634 99.0115C33.4634 99.0115 33.4634 82.1843 48.5132 74.6658L39.1071 69.6534C39.1071 69.6534 57.9194 57.4805 73.3454 67.5052L76.3554 68.9373Z" fill="#E1F4F9"/>
<path d="M42.1167 100.086L32.7105 100.068V98.9936C32.7105 88.9689 37.0938 82.7428 40.7697 79.2807C42.8777 77.2812 45.3331 75.6435 48.0275 74.4402C47.132 72.1954 41.8119 71.1607 39.8366 70.9673L36.8267 70.6702L39.3099 69.0197C50.1194 61.8377 59.8679 61.8806 66.1437 63.1838C69.859 63.944 73.3957 65.3482 76.577 67.3262C78.0632 65.7759 78.4093 62.568 78.4093 61.3364V60.0081L79.7751 60.2838C84.9823 61.3579 86.081 67.9384 86.1261 68.2213C86.1705 68.5033 86.0954 68.7905 85.9172 69.0198C85.739 69.2491 85.4725 69.4017 85.1761 69.4439C84.8797 69.4862 84.5779 69.4147 84.3369 69.2451C84.0959 69.0756 83.9356 68.8219 83.8912 68.5399C83.8912 68.454 83.1839 64.4011 80.569 62.8724C80.3507 64.8343 79.6284 68.0816 77.2693 69.5782L76.5883 70.0114L75.9562 69.5245C72.8354 67.4476 69.3017 65.999 65.5718 65.2676C57.9378 63.7066 50.3489 65.0706 42.9971 69.3132C46.0823 70.0078 50.443 71.6082 50.443 75.1097V75.8687L49.6905 76.1229C46.9227 77.2257 44.4143 78.8434 42.3123 80.8811C37.692 85.2669 35.2389 90.9953 35.0132 97.9231H42.1618C42.4612 97.9231 42.7483 98.0363 42.96 98.2377C43.1716 98.4391 43.2906 98.7123 43.2906 98.9972C43.2906 99.2821 43.1716 99.5553 42.96 99.7567C42.7483 99.9581 42.4612 100.071 42.1618 100.071L42.1167 100.086Z" fill="#1B3C47"/>
<path d="M75.6028 83.9744C75.6028 83.9744 71.8403 104.382 96.2963 97.2214L97.5003 98.6535C97.5003 98.6535 92.4548 103.233 86.5139 102.234C77.8602 100.802 67.3254 92.209 75.6028 83.9744Z" fill="#54B9D3"/>
<path d="M115.838 78.8296C117.028 79.3537 118.136 80.032 119.13 80.8453C119.883 81.4862 120.259 82.0125 120.097 82.2165C119.777 82.6318 117.625 81.6509 115.014 80.4801C112.403 79.3094 110.251 78.3319 110.39 77.8307C110.462 77.5908 111.116 77.5264 112.117 77.6768C113.408 77.8949 114.66 78.2829 115.838 78.8296Z" fill="#E5F5FA"/>
<path d="M125.545 85.6965C126.206 86.5244 126.721 87.448 127.073 88.4319C127.329 89.1837 127.359 89.7064 127.126 89.8317C126.892 89.957 126.445 89.6527 125.895 89.0799C125.346 88.507 124.706 87.6764 124.014 86.7993C123.322 85.9221 122.667 85.1631 122.193 84.5616C121.719 83.9601 121.459 83.5197 121.614 83.3085C121.768 83.0973 122.325 83.1832 123.077 83.5806C124.044 84.1171 124.884 84.8374 125.545 85.6965Z" fill="#E5F5FA"/>
<path d="M129.233 91.9011C129.534 92.6781 129.233 93.412 128.721 93.5051C128.209 93.5982 127.671 93.1471 127.43 92.5348C127.19 91.9226 127.287 91.2531 127.746 90.9989C128.206 90.7447 128.932 91.1242 129.233 91.9011Z" fill="#E5F5FA"/>
<path d="M108.156 70.4196C109.341 69.972 110.458 70.0866 110.605 70.5699C110.752 71.0533 109.958 71.7084 108.863 72.1202C107.768 72.5319 106.718 72.5785 106.478 72.1202C106.237 71.6619 106.967 70.8671 108.156 70.4196Z" fill="#E5F5FA"/>
<path d="M113.404 68.8693C114.051 68.6903 114.695 68.9373 114.845 69.4207C114.996 69.904 114.589 70.4446 113.946 70.6237C113.302 70.8027 112.655 70.5556 112.505 70.0723C112.354 69.589 112.761 69.0483 113.404 68.8693Z" fill="#E5F5FA"/>
<path d="M93.4482 62.1134C95.1389 61.8114 96.8681 61.7559 98.5764 61.9487C99.882 62.1169 100.657 62.4248 100.634 62.6647C100.578 63.1839 97.4778 63.259 93.7905 63.9107C90.1033 64.5623 87.1649 65.4931 86.9203 65.0241C86.8112 64.8021 87.4245 64.2579 88.5871 63.6636C90.116 62.9165 91.7549 62.3939 93.4482 62.1134Z" fill="#E5F5FA"/>
<path d="M104.107 62.4893C104.281 62.5556 104.43 62.6687 104.538 62.8146C104.645 62.9606 104.705 63.1331 104.711 63.311C104.717 63.489 104.668 63.6648 104.571 63.8168C104.473 63.9689 104.331 64.0906 104.162 64.1672C103.994 64.2438 103.805 64.2719 103.619 64.2481C103.434 64.2243 103.26 64.1496 103.118 64.0331C102.977 63.9167 102.874 63.7635 102.822 63.5923C102.771 63.4212 102.773 63.2394 102.828 63.0693C102.917 62.8313 103.102 62.6368 103.342 62.5281C103.581 62.4194 103.857 62.4054 104.107 62.4893Z" fill="#E5F5FA"/>
<path d="M78.2855 90.4833C78.5802 91.4368 78.9787 92.3583 79.4745 93.233C79.8507 93.9025 80.1592 94.3071 80.0614 94.4037C79.9636 94.5004 79.4895 94.2355 78.9327 93.6018C78.2142 92.7583 77.6853 91.7834 77.3788 90.7376C77.0693 89.7203 76.8937 88.6704 76.8558 87.612C76.8257 86.81 76.8859 86.3088 77.0176 86.2944C77.1493 86.2801 77.3261 86.7527 77.5255 87.5225C77.7249 88.2922 77.9356 89.3627 78.2855 90.4833Z" fill="#6AC2D9"/>
<path d="M87.1459 96.5841C88.4552 96.5877 89.7622 96.4798 91.0513 96.2619C92.0597 96.1079 92.6993 96.0148 92.7407 96.1401C92.7821 96.2655 92.2139 96.5662 91.2169 96.8884C89.8996 97.3102 88.5168 97.5172 87.1271 97.5006C85.7166 97.49 84.3284 97.1638 83.0749 96.5483C82.123 96.0542 81.6828 95.5601 81.7581 95.4742C81.8333 95.3883 82.4052 95.6532 83.3496 95.9611C84.5735 96.3545 85.8542 96.5647 87.1459 96.5841Z" fill="#6AC2D9"/>
<path d="M115.297 117.092C115.088 117.092 114.884 117.038 114.706 116.934C103.818 110.583 93.7605 116.655 93.3391 116.916C93.0902 117.045 92.7995 117.08 92.5247 117.015C92.2498 116.949 92.011 116.788 91.8556 116.562C91.7002 116.337 91.6395 116.064 91.6857 115.798C91.7319 115.532 91.8816 115.292 92.105 115.126C92.5753 114.833 103.769 108.03 115.887 115.108C116.098 115.231 116.26 115.415 116.35 115.633C116.44 115.851 116.452 116.091 116.385 116.317C116.318 116.542 116.176 116.741 115.979 116.882C115.783 117.023 115.543 117.099 115.297 117.099V117.092Z" fill="#1B3C47"/>
<path d="M80.3058 117.092C80.0973 117.092 79.8929 117.038 79.715 116.934C68.8265 110.583 58.7695 116.655 58.3481 116.916C58.0992 117.045 57.8085 117.08 57.5337 117.015C57.2588 116.949 57.02 116.788 56.8646 116.562C56.7091 116.337 56.6485 116.064 56.6947 115.798C56.7409 115.532 56.8906 115.292 57.114 115.126C57.5843 114.833 68.7776 108.03 80.8965 115.108C81.1066 115.231 81.269 115.415 81.3589 115.633C81.4487 115.851 81.4612 116.091 81.3942 116.317C81.3273 116.542 81.1847 116.741 80.9882 116.882C80.7917 117.023 80.552 117.099 80.3058 117.099V117.092Z" fill="#1B3C47"/>
<g opacity="0.5">
<path opacity="0.5" d="M121.163 121.703L93.2076 140.679V129.873L107.561 120.135H117.532C118.222 120.12 118.907 120.254 119.535 120.525C120.164 120.797 120.72 121.199 121.163 121.703Z" fill="white"/>
<path opacity="0.5" d="M121.881 126.304V132.129L102.12 145.555H97.5603C96.552 145.563 95.5658 145.273 94.7385 144.724L121.881 126.304Z" fill="white"/>
</g>
<path d="M53.7091 94.0314C57.8704 92.7031 61.0798 91.1887 61.2152 91.425C61.3507 91.6613 58.2767 93.5373 54.0139 94.8978C49.751 96.2583 46.1127 96.5304 46.0751 96.2941C46.0375 96.0578 49.5516 95.3811 53.7091 94.0314Z" fill="#6AC2D9"/>
<path d="M65.5343 87.8805C66.7195 86.9747 67.7918 86.3517 67.9686 86.5451C68.1454 86.7384 67.3403 87.6728 66.1363 88.593C64.9323 89.5131 63.796 90.0609 63.6418 89.8568C63.4875 89.6527 64.3491 88.8078 65.5343 87.8805Z" fill="#6AC2D9"/>
<path d="M72.8596 81.5649C74.7408 79.9825 76.5468 79.0588 76.6898 79.2557C76.8327 79.4526 75.3278 80.7093 73.4954 82.2524C71.6631 83.7954 70.177 85.07 69.9738 84.8982C69.7706 84.7263 70.9708 83.1474 72.8596 81.5649Z" fill="#6AC2D9"/>
<path d="M47.5838 93.6948C50.7367 93.0468 53.2274 92.1625 53.3253 92.406C53.4231 92.6494 51.0678 93.9132 47.7869 94.5863C44.5061 95.2594 41.7896 95.0482 41.8009 94.8083C41.8121 94.5684 44.4346 94.3608 47.5838 93.6948Z" fill="#6AC2D9"/>
<path opacity="0.5" d="M86.514 129.061V150.209C86.514 150.209 80.5355 147.52 80.5355 142.422C80.5355 137.324 80.8703 129.444 80.8703 129.444L85.4492 128.284C85.5745 128.251 85.7061 128.247 85.8335 128.27C85.961 128.294 86.081 128.346 86.1841 128.421C86.2871 128.496 86.3706 128.593 86.4278 128.704C86.485 128.815 86.5145 128.937 86.514 129.061Z" fill="#FCEADE"/>
<path d="M86.4916 150.925C85.1118 150.914 83.7932 150.382 82.8253 149.446C81.8575 148.51 81.3195 147.247 81.3295 145.934C81.3295 145.65 81.4484 145.376 81.6601 145.175C81.8718 144.974 82.1589 144.86 82.4582 144.86C82.7576 144.86 83.0447 144.974 83.2564 145.175C83.468 145.376 83.587 145.65 83.587 145.934C83.5729 146.306 83.6376 146.676 83.7772 147.022C83.9167 147.369 84.1283 147.686 84.3992 147.953C84.6701 148.22 84.9949 148.433 85.354 148.578C85.7132 148.723 86.0995 148.798 86.4897 148.798C86.8799 148.798 87.2662 148.723 87.6253 148.578C87.9845 148.433 88.3093 148.22 88.5802 147.953C88.8511 147.686 89.0627 147.369 89.2022 147.022C89.3418 146.676 89.4065 146.306 89.3924 145.934C89.3924 145.65 89.5113 145.376 89.723 145.175C89.9347 144.974 90.2218 144.86 90.5212 144.86C90.8205 144.86 91.1076 144.974 91.3193 145.175C91.531 145.376 91.6499 145.65 91.6499 145.934C91.6599 147.247 91.1224 148.509 90.1554 149.445C89.1883 150.381 87.8707 150.913 86.4916 150.925Z" fill="#1B3C47"/>
<g opacity="0.3">
<path opacity="0.3" d="M80.5354 121.703L52.7572 140.679V129.873L67.0131 120.135H76.9197C77.6076 120.12 78.2902 120.253 78.9163 120.525C79.5424 120.797 80.096 121.199 80.5354 121.703Z" fill="white"/>
<path opacity="0.3" d="M81.2466 126.304V132.129L61.6141 145.555H57.0992C56.0955 145.563 55.1142 145.273 54.2924 144.724L81.2466 126.304Z" fill="white"/>
</g>
<path d="M86.4233 102.685C86.1487 102.685 85.8778 102.685 85.6069 102.667C82.2175 102.528 78.9871 101.261 76.4791 99.0867C72.1598 95.3489 70.3351 89.2911 72.3404 85.2955C72.3994 85.1618 72.4862 85.0408 72.5956 84.9398C72.7051 84.8389 72.8349 84.7601 72.9772 84.7081C73.1195 84.6562 73.2714 84.6322 73.4237 84.6377C73.576 84.6431 73.7256 84.6779 73.8634 84.7398C74.0012 84.8017 74.1244 84.8896 74.2256 84.9981C74.3267 85.1066 74.4038 85.2334 74.452 85.371C74.5003 85.5086 74.5187 85.654 74.5063 85.7986C74.4939 85.9431 74.4508 86.0838 74.3797 86.2121C73.0177 88.951 74.0034 94.0421 78.0142 97.4971C80.6893 99.8135 86.5362 102.825 96.1906 97.8551C95.1319 96.6585 94.4949 95.1757 94.3696 93.6161C94.2643 91.604 95.1748 89.6778 97.0711 87.859L97.9665 87.0176L98.7491 87.9915C98.7792 88.0273 101.864 91.7758 107.881 94.5756C115.676 98.206 124.563 98.6678 134.304 95.9576C133.424 92.2556 129.18 78.3606 114.642 74.834L111.097 73.9712L125.177 69.102C121.459 66.1243 117.311 63.6717 112.858 61.8198C102.075 57.4232 91.9579 58.0211 82.7963 63.6099C82.5438 63.7637 82.2375 63.8158 81.9447 63.7547C81.6519 63.6936 81.3965 63.5243 81.2349 63.2841C81.0732 63.0439 81.0185 62.7524 81.0827 62.4737C81.1469 62.1951 81.3248 61.9521 81.5773 61.7983C91.2919 55.8909 102.44 55.2285 113.814 59.8829C119.07 62.0478 123.904 65.0425 128.111 68.7404L129.387 69.9326L118.397 73.7098C124.477 75.9797 129.447 80.2903 132.89 86.3267C134.723 89.5119 136.02 92.9515 136.731 96.5197L136.878 97.4326L135.952 97.7083C122.573 101.7 112.704 99.2192 106.782 96.4373C103.442 94.8903 100.416 92.792 97.8461 90.2399C97.0307 91.149 96.5919 92.31 96.612 93.5051C96.7249 95.6783 98.6852 97.2572 98.704 97.2751L99.9493 98.2453L98.5685 99.0294C94.2981 101.46 90.2159 102.685 86.4233 102.685Z" fill="#1B3C47"/>
<path d="M45.6085 99.7133C45.3091 99.718 45.02 99.6094 44.8048 99.4113C44.5896 99.2133 44.4659 98.942 44.4609 98.6571C44.456 98.3722 44.5701 98.0971 44.7782 97.8924C44.9864 97.6876 45.2715 97.5699 45.5709 97.5651C61.8736 97.0066 77.721 79.9359 77.8791 79.7641C77.9746 79.652 78.0928 79.5593 78.2267 79.4917C78.3606 79.4241 78.5075 79.3828 78.6586 79.3703C78.8096 79.3579 78.9618 79.3745 79.1059 79.4193C79.2501 79.464 79.3833 79.536 79.4976 79.6308C79.6119 79.7256 79.7049 79.8413 79.7712 79.9711C79.8374 80.1009 79.8755 80.242 79.8832 80.3861C79.8909 80.5302 79.8679 80.6743 79.8158 80.8098C79.7636 80.9453 79.6834 81.0694 79.5797 81.1747C76.4264 84.4745 72.9617 87.4922 69.2292 90.1898C60.869 96.2583 52.9378 99.4626 45.6536 99.7133H45.6085Z" fill="#1B3C47"/>
<path d="M47.5538 111.335C47.8118 109.985 48.3297 108.692 49.0814 107.522C49.6909 106.63 50.2929 106.194 50.6541 106.34C51.0153 106.487 51.0943 107.182 51.004 108.166C50.9137 109.151 50.6729 110.447 50.3832 111.861C50.0935 113.275 49.8113 114.553 49.5065 115.502C49.2018 116.451 48.8669 117.063 48.4643 117.074C48.0618 117.085 47.6855 116.462 47.4711 115.416C47.2342 114.063 47.2622 112.679 47.5538 111.335Z" fill="white"/>
<path d="M57.6523 101.525C60.1318 100.673 62.3365 100.308 62.694 100.988C63.0514 101.668 61.2906 103.186 58.6343 104.103C55.978 105.019 53.6001 104.926 53.4195 104.196C53.2389 103.465 55.1728 102.388 57.6523 101.525Z" fill="white"/>
<path d="M66.2684 97.0854C67.0021 96.4445 68.0217 96.2798 68.6162 96.781C69.2106 97.2823 69.0714 98.3599 68.2211 99.1046C67.3708 99.8493 66.227 99.8923 65.7567 99.2872C65.2864 98.6821 65.5385 97.7262 66.2684 97.0854Z" fill="white"/>
<path d="M40.341 86.7563C40.6881 86.0732 41.1297 85.4374 41.6541 84.8659C42.0842 84.4009 42.5822 83.997 43.1328 83.6665C44.0847 83.1116 44.8334 83.0472 45.0591 83.3443C45.2849 83.6415 45.0253 84.2537 44.5776 85.0306C44.3593 85.4101 44.096 85.8541 43.8025 86.3517C43.509 86.8494 43.2306 87.3721 42.9409 87.9378C42.6512 88.5035 42.4104 89.062 42.1884 89.574L41.5977 90.9774C41.2214 91.7937 40.928 92.3737 40.5179 92.3916C40.1078 92.4095 39.7165 91.8188 39.5735 90.7626C39.497 90.1476 39.5147 89.5253 39.6262 88.9152C39.7621 88.1684 40.0025 87.4423 40.341 86.7563Z" fill="white"/>
<path d="M49.5628 80.498C50.2107 80.2629 50.8942 80.1288 51.587 80.1006C52.1739 80.1006 52.6442 80.2259 52.8436 80.5553C53.0431 80.8847 52.9227 81.3501 52.5125 81.8298C51.9711 82.3925 51.294 82.8215 50.5396 83.0797C49.7851 83.3379 48.976 83.4177 48.182 83.3121C47.5461 83.1939 47.136 82.9039 47.0532 82.5316C46.9704 82.1592 47.2639 81.7726 47.7154 81.4217C48.2744 81.0204 48.8984 80.7084 49.5628 80.498Z" fill="white"/>
<path d="M56.3355 68.0996C57.1393 67.993 57.9583 68.0906 58.7096 68.3824C59.3041 68.6366 59.6352 69.009 59.6089 69.3813C59.5825 69.7537 59.2138 70.0795 58.6871 70.3193C57.3974 70.8342 55.982 70.9954 54.601 70.7848C54.0291 70.6666 53.5965 70.4267 53.4723 70.0687C53.3481 69.7107 53.5814 69.2775 54.0969 68.8944C54.7554 68.4445 55.5282 68.1701 56.3355 68.0996Z" fill="white"/>
<path d="M49.7544 153.611C50.0726 154.501 50.3105 155.417 50.4655 156.346C50.5709 157.098 50.5107 157.667 50.1645 157.86C49.8184 158.054 49.2502 157.814 48.6595 157.209C47.9109 156.411 47.3537 155.468 47.0266 154.445C46.6684 153.43 46.5489 152.354 46.6767 151.291C46.8046 150.46 47.1244 149.952 47.5195 149.919C47.9146 149.887 48.3134 150.313 48.6896 150.993C49.1197 151.836 49.4758 152.712 49.7544 153.611Z" fill="white"/>
<path d="M52.341 222.15L31.6654 222.48C29.4485 222.515 27.6815 224.254 27.7187 226.364L27.7188 226.367C27.7559 228.477 29.5831 230.158 31.8 230.123L52.4755 229.793C54.6924 229.758 56.4594 228.019 56.4223 225.909L56.4222 225.906C56.385 223.796 54.5578 222.115 52.341 222.15Z" fill="white"/>
<path d="M56.3915 225.932V225.996C56.3907 226.998 55.9767 227.96 55.2386 228.674C54.5006 229.388 53.4973 229.799 52.4447 229.816L31.7512 230.142C31.224 230.151 30.7002 230.06 30.2097 229.876C29.7191 229.692 29.2716 229.418 28.8925 229.069C28.5134 228.72 28.2102 228.304 28.0003 227.844C27.7903 227.383 27.6777 226.888 27.6689 226.387V226.29C27.6689 226.225 27.6689 228.309 27.6689 228.245L46.3119 227.887C51.2031 227.887 52.614 226.097 52.377 222.158C53.433 222.159 54.4462 222.555 55.1975 223.262C55.9487 223.968 56.3777 224.927 56.3915 225.932Z" fill="#CFD2E8"/>
<path d="M91.1303 164.53H77.1076C76.8082 164.53 76.5211 164.417 76.3094 164.216C76.0978 164.014 75.9789 163.741 75.9789 163.456C75.9789 163.171 76.0978 162.898 76.3094 162.697C76.5211 162.495 76.8082 162.382 77.1076 162.382H91.1303C92.501 162.386 93.859 162.131 95.1255 161.632C96.392 161.133 97.5418 160.4 98.5084 159.475C98.7224 159.285 99.0054 159.182 99.2978 159.187C99.5902 159.192 99.8692 159.305 100.076 159.501C100.283 159.698 100.401 159.964 100.406 160.242C100.412 160.52 100.303 160.789 100.104 160.993C98.9281 162.118 97.5296 163.01 95.9893 163.617C94.449 164.224 92.7975 164.535 91.1303 164.53Z" fill="#1B3C47"/>
<path d="M262.597 70.3694C261.555 70.3694 260.537 70.0755 259.67 69.5247C258.804 68.9739 258.129 68.1911 257.73 67.2752C257.332 66.3593 257.227 65.3515 257.431 64.3792C257.634 63.4069 258.136 62.5138 258.872 61.8128C259.609 61.1118 260.547 60.6344 261.569 60.441C262.591 60.2476 263.65 60.3469 264.613 60.7263C265.575 61.1056 266.398 61.7481 266.977 62.5724C267.555 63.3966 267.864 64.3657 267.864 65.3571C267.864 66.6864 267.309 67.9614 266.321 68.9014C265.334 69.8414 263.994 70.3694 262.597 70.3694ZM262.597 62.4929C262.002 62.4929 261.42 62.6608 260.925 62.9756C260.43 63.2903 260.044 63.7376 259.816 64.261C259.588 64.7844 259.529 65.3603 259.645 65.9159C259.761 66.4715 260.048 66.9818 260.468 67.3824C260.889 67.7829 261.426 68.0557 262.01 68.1663C262.593 68.2768 263.199 68.22 263.749 68.0033C264.299 67.7865 264.769 67.4194 265.1 66.9483C265.43 66.4773 265.607 65.9236 265.607 65.3571C265.607 64.5974 265.29 63.8689 264.725 63.3318C264.161 62.7946 263.395 62.4929 262.597 62.4929Z" fill="#F2BF46"/>
<path d="M257.329 79.3201C258.576 79.3201 259.587 78.3583 259.587 77.1719C259.587 75.9855 258.576 75.0238 257.329 75.0238C256.083 75.0238 255.072 75.9855 255.072 77.1719C255.072 78.3583 256.083 79.3201 257.329 79.3201Z" fill="#B0D7E9"/>
<path d="M83.1277 46.3817C82.0859 46.3817 81.0675 46.0877 80.2012 45.537C79.335 44.9862 78.6599 44.2034 78.2612 43.2875C77.8625 42.3716 77.7582 41.3638 77.9614 40.3915C78.1647 39.4192 78.6664 38.526 79.403 37.825C80.1397 37.1241 81.0783 36.6467 82.1 36.4533C83.1218 36.2599 84.1809 36.3591 85.1434 36.7385C86.1059 37.1179 86.9286 37.7603 87.5074 38.5846C88.0862 39.4089 88.3951 40.378 88.3951 41.3693C88.3951 42.6987 87.8401 43.9736 86.8523 44.9136C85.8645 45.8536 84.5247 46.3817 83.1277 46.3817ZM83.1277 38.5051C82.5324 38.5051 81.9504 38.6731 81.4554 38.9878C80.9604 39.3025 80.5746 39.7499 80.3468 40.2732C80.119 40.7966 80.0594 41.3725 80.1755 41.9281C80.2917 42.4837 80.5784 42.9941 80.9993 43.3946C81.4203 43.7952 81.9566 44.068 82.5405 44.1785C83.1243 44.289 83.7295 44.2323 84.2795 44.0155C84.8295 43.7987 85.2996 43.4316 85.6304 42.9606C85.9611 42.4896 86.1376 41.9358 86.1376 41.3693C86.1376 40.6097 85.8205 39.8812 85.256 39.344C84.6916 38.8069 83.926 38.5051 83.1277 38.5051Z" fill="#F2BF46"/>
<path d="M72.5927 53.9002C73.8395 53.9002 74.8502 52.9385 74.8502 51.7521C74.8502 50.5657 73.8395 49.6039 72.5927 49.6039C71.346 49.6039 70.3353 50.5657 70.3353 51.7521C70.3353 52.9385 71.346 53.9002 72.5927 53.9002Z" fill="#B0D7E9"/>
<path d="M169.134 283.191C168.153 283.525 167.09 283.574 166.079 283.333C165.069 283.092 164.156 282.571 163.457 281.836C162.758 281.101 162.303 280.186 162.15 279.205C161.998 278.225 162.154 277.223 162.6 276.327C163.045 275.431 163.76 274.681 164.653 274.171C165.547 273.662 166.579 273.416 167.62 273.465C168.66 273.513 169.662 273.855 170.499 274.445C171.335 275.036 171.969 275.849 172.32 276.782C172.553 277.402 172.656 278.06 172.622 278.717C172.588 279.375 172.418 280.02 172.122 280.615C171.826 281.21 171.41 281.744 170.897 282.186C170.384 282.628 169.785 282.969 169.134 283.191ZM166.349 275.773C165.789 275.964 165.301 276.308 164.946 276.763C164.592 277.218 164.387 277.763 164.358 278.329C164.328 278.895 164.476 279.456 164.782 279.942C165.088 280.427 165.539 280.816 166.077 281.058C166.615 281.301 167.216 281.386 167.805 281.303C168.394 281.22 168.943 280.972 169.385 280.592C169.826 280.212 170.139 279.716 170.283 279.166C170.428 278.617 170.399 278.039 170.198 277.505C170.065 277.151 169.86 276.825 169.595 276.546C169.329 276.267 169.009 276.041 168.651 275.88C168.294 275.719 167.906 275.627 167.511 275.608C167.117 275.59 166.722 275.646 166.349 275.773Z" fill="#F2BF46"/>
<path d="M22.2812 192.091C23.5279 192.091 24.5386 191.129 24.5386 189.943C24.5386 188.757 23.5279 187.795 22.2812 187.795C21.0344 187.795 20.0237 188.757 20.0237 189.943C20.0237 191.129 21.0344 192.091 22.2812 192.091Z" fill="#B0D7E9"/>
<path d="M37.1804 285.364C37.0568 285.365 36.9342 285.342 36.8199 285.297C36.7055 285.252 36.6016 285.186 36.5142 285.103C36.4268 285.02 36.3575 284.921 36.3104 284.812C36.2633 284.703 36.2393 284.587 36.2398 284.469V230.049C36.2398 229.812 36.3389 229.584 36.5153 229.416C36.6917 229.248 36.931 229.154 37.1804 229.154C37.4299 229.154 37.6691 229.248 37.8455 229.416C38.0219 229.584 38.121 229.812 38.121 230.049V284.469C38.121 284.706 38.0219 284.934 37.8455 285.102C37.6691 285.27 37.4299 285.364 37.1804 285.364Z" fill="#1B3C47"/>
<path d="M31.7135 231.019C30.3993 231.029 29.1348 230.542 28.1981 229.665C27.2614 228.788 26.7293 227.592 26.7188 226.342C26.7084 225.091 27.2204 223.888 28.1422 222.997C29.0641 222.105 30.3203 221.599 31.6345 221.589L52.328 221.26C53.6243 221.266 54.8665 221.755 55.7884 222.622C56.7103 223.49 57.2387 224.666 57.2604 225.9C57.282 227.133 56.7952 228.325 55.9042 229.221C55.0132 230.117 53.7889 230.646 52.4935 230.694L31.8188 231.019H31.7135ZM52.3919 223.068H52.3393L31.6646 223.397C31.0609 223.411 30.475 223.595 29.9799 223.924C29.4848 224.252 29.1023 224.713 28.8801 225.247C28.6579 225.781 28.6058 226.366 28.7303 226.928C28.8548 227.491 29.1503 228.006 29.5802 228.409C29.8686 228.679 30.2111 228.89 30.5874 229.031C30.9636 229.172 31.3658 229.24 31.7699 229.229L52.4446 228.903C53.2421 228.871 53.9952 228.545 54.545 227.995C55.0949 227.444 55.3984 226.712 55.3915 225.952C55.3847 225.193 55.0681 224.466 54.5084 223.924C53.9487 223.382 53.1899 223.069 52.3919 223.05V223.068Z" fill="#1B3C47"/>
<path d="M69.5337 187.426V190.784C69.5337 192.94 69.9798 195.074 70.8466 197.065C71.7133 199.056 72.9837 200.865 74.5853 202.389C76.1868 203.913 78.0881 205.122 80.1806 205.947C82.2732 206.772 84.5159 207.196 86.7808 207.196C89.0457 207.196 91.2885 206.772 93.381 205.947C95.4735 205.122 97.3748 203.913 98.9764 202.389C100.578 200.865 101.848 199.056 102.715 197.065C103.582 195.074 104.028 192.94 104.028 190.784V187.426L87.2436 190.72L69.5337 187.426Z" fill="#F4CEAE"/>
<path d="M104.434 186.109V189.467C104.434 191.922 103.854 194.345 102.74 196.558C101.625 198.772 100.002 200.72 97.9923 202.258C95.9822 203.797 93.6352 204.887 91.124 205.448C88.6128 206.01 86.0012 206.028 83.4814 205.503C87.321 204.698 90.7566 202.669 93.2197 199.753C95.6828 196.837 97.0257 193.208 97.0262 189.467L98.155 188.575L104.434 186.109Z" fill="#FFB594"/>
<path d="M86.8 191.622C80.7601 191.64 74.7781 190.501 69.2107 188.273C63.6432 186.044 58.6042 182.772 54.394 178.651C54.1844 178.447 54.0685 178.173 54.0717 177.888C54.0748 177.603 54.1969 177.33 54.4109 177.131C54.625 176.932 54.9135 176.821 55.213 176.824C55.5125 176.827 55.7985 176.943 56.0081 177.147C61.0527 182.054 67.3114 185.677 74.2099 187.684C81.1085 189.69 88.4262 190.017 95.4918 188.633C102.557 187.249 109.145 184.198 114.649 179.762C120.154 175.326 124.4 169.645 126.998 163.241C127.106 162.976 127.32 162.761 127.594 162.646C127.868 162.53 128.179 162.523 128.458 162.626C128.737 162.728 128.962 162.932 129.084 163.193C129.205 163.453 129.213 163.749 129.105 164.015C125.807 172.143 120 179.13 112.449 184.057C104.898 188.985 95.9561 191.622 86.8 191.622Z" fill="#1B3C47"/>
<path d="M144.057 200.938L178.295 155.111L188.266 139.895L183.186 136.135L180.553 137.925L187.171 127.428C187.336 127.165 187.444 126.873 187.488 126.569C187.532 126.265 187.511 125.956 187.427 125.66C187.342 125.364 187.195 125.088 186.995 124.847C186.796 124.606 186.547 124.406 186.264 124.26C185.734 123.983 185.114 123.908 184.528 124.05C183.942 124.191 183.435 124.539 183.107 125.022L172.422 140.775L172.651 146.89C172.651 147.803 172.35 149.189 172.975 149.98C173.754 150.961 175.556 151.004 176.542 150.338C177.614 149.601 178.092 148.19 178.246 146.991C178.558 144.552 177.471 142.057 174.954 141.13C173.786 140.686 172.489 140.66 171.302 141.054C170.115 141.449 169.118 142.239 168.494 143.278C167.746 144.539 167.122 145.863 166.631 147.234L161.436 153.252L150.246 166.242L139.568 178.629L136.46 182.253C136.133 182.629 135.847 182.847 135.877 183.327C135.911 183.864 136.396 184.591 136.603 185.088" fill="#F4CEAE"/>
<path d="M188.608 125.613C188.508 125.598 188.408 125.591 188.307 125.591C187.907 125.591 187.514 125.687 187.163 125.869C186.812 126.051 186.514 126.314 186.298 126.633L176.568 140.954L175.609 142.368V142.397C174.915 142.468 174.245 142.672 173.637 142.999C172.821 143.437 172.144 144.078 171.681 144.853C170.931 146.125 170.307 147.46 169.818 148.842L164.634 154.856L153.463 167.846L142.785 180.237L139.677 183.846C139.35 184.204 139.064 184.44 139.094 184.92C139.128 185.453 139.613 186.184 139.82 186.678L145.005 200.047L145.193 200.584L137.751 184.709C137.544 184.215 137.059 183.484 137.025 182.951C136.995 182.475 137.281 182.256 137.608 181.877L140.716 178.268L151.394 165.876L162.564 152.894L167.76 146.876C168.249 145.494 168.873 144.159 169.623 142.888C170.026 142.211 170.592 141.636 171.275 141.209C171.958 140.782 172.738 140.515 173.551 140.432V140.403L184.24 124.65C184.456 124.33 184.754 124.067 185.105 123.885C185.456 123.703 185.849 123.608 186.249 123.608C186.831 123.609 187.393 123.811 187.829 124.178C188.265 124.544 188.546 125.049 188.619 125.599L188.608 125.613Z" fill="#FCEADE"/>
<path d="M137.356 185.604C137.167 185.603 136.982 185.549 136.826 185.447C136.669 185.346 136.549 185.202 136.479 185.034C136.423 184.895 136.34 184.741 136.254 184.576C135.964 184.089 135.774 183.555 135.693 183.001C135.681 182.715 135.733 182.431 135.846 182.166C135.959 181.901 136.13 181.662 136.348 181.465L136.487 181.307L166.534 146.45C167.033 145.068 167.663 143.732 168.415 142.458C169.148 141.229 170.323 140.293 171.725 139.825C173.126 139.356 174.658 139.386 176.038 139.909C178.754 140.911 180.316 143.643 179.924 146.711C179.793 147.75 179.345 149.644 177.84 150.678C176.508 151.595 174.078 151.563 172.971 150.145C172.283 149.278 172.362 148.111 172.426 147.173C172.426 146.933 172.456 146.708 172.456 146.522C172.455 146.404 172.479 146.288 172.526 146.179C172.573 146.07 172.642 145.971 172.729 145.888C172.816 145.804 172.919 145.738 173.033 145.692C173.147 145.647 173.269 145.623 173.393 145.623C173.642 145.623 173.88 145.717 174.057 145.884C174.233 146.051 174.332 146.278 174.333 146.514C174.333 146.761 174.333 147.016 174.3 147.288C174.254 147.932 174.202 148.72 174.469 149.078C174.913 149.64 176.143 149.644 176.726 149.239C177.686 148.577 177.968 147.109 178.047 146.507C178.265 144.778 177.693 142.454 175.345 141.588C174.388 141.224 173.325 141.201 172.351 141.523C171.377 141.846 170.558 142.492 170.044 143.342C169.329 144.562 168.735 145.842 168.268 147.166L168.216 147.331L137.939 182.46C137.883 182.528 137.826 182.589 137.77 182.65C137.695 182.727 137.627 182.81 137.567 182.897C137.649 183.215 137.776 183.521 137.943 183.806C138.048 184.014 138.146 184.207 138.225 184.397C138.271 184.506 138.293 184.623 138.291 184.741C138.289 184.858 138.263 184.974 138.214 185.082C138.164 185.19 138.093 185.288 138.004 185.369C137.915 185.451 137.81 185.515 137.695 185.557C137.586 185.593 137.471 185.608 137.356 185.604Z" fill="#1B3C47"/>
<path d="M144.809 201.475C144.634 201.475 144.463 201.429 144.315 201.341C144.166 201.254 144.046 201.129 143.968 200.98C143.89 200.832 143.857 200.665 143.872 200.5C143.888 200.334 143.952 200.176 144.057 200.043L178.276 154.241L187.25 140.242L182.588 136.44C182.398 136.285 182.281 136.065 182.262 135.828C182.243 135.591 182.324 135.356 182.486 135.176C182.649 134.995 182.88 134.884 183.129 134.866C183.378 134.848 183.625 134.924 183.814 135.079L189.688 139.873L179.83 155.268L145.592 201.096C145.504 201.215 145.386 201.312 145.25 201.378C145.114 201.444 144.962 201.477 144.809 201.475Z" fill="#1B3C47"/>
<path d="M145.334 202.075L137.685 183.794C136.865 181.834 134.53 180.878 132.471 181.658L132.467 181.659C130.407 182.44 129.402 184.661 130.222 186.622L137.871 204.903C138.692 206.863 141.026 207.819 143.086 207.039L143.09 207.038C145.15 206.257 146.155 204.036 145.334 202.075Z" fill="white"/>
<path d="M141.596 208.202C140.606 208.2 139.638 207.916 138.818 207.386C137.998 206.857 137.363 206.106 136.995 205.231L129.346 186.95C129.084 186.371 128.947 185.747 128.942 185.117C128.938 184.486 129.066 183.862 129.32 183.279C129.573 182.697 129.947 182.168 130.419 181.726C130.89 181.283 131.451 180.934 132.066 180.701C132.682 180.468 133.34 180.354 134.003 180.367C134.665 180.38 135.318 180.519 135.923 180.776C136.528 181.033 137.073 181.403 137.525 181.864C137.977 182.325 138.328 182.867 138.556 183.459L146.205 201.74C146.504 202.456 146.613 203.23 146.525 203.996C146.437 204.761 146.153 205.495 145.698 206.132C145.244 206.769 144.632 207.291 143.917 207.652C143.203 208.013 142.406 208.202 141.596 208.202ZM133.951 182.278C133.449 182.278 132.954 182.394 132.51 182.618C132.067 182.842 131.687 183.166 131.405 183.562C131.124 183.957 130.948 184.413 130.894 184.888C130.84 185.363 130.909 185.844 131.095 186.288L138.741 204.568C138.88 204.938 139.097 205.278 139.377 205.566C139.658 205.855 139.996 206.087 140.373 206.248C140.749 206.41 141.156 206.497 141.569 206.506C141.982 206.515 142.392 206.444 142.776 206.299C143.16 206.153 143.509 205.936 143.802 205.66C144.096 205.383 144.328 205.053 144.485 204.69C144.641 204.326 144.72 203.936 144.715 203.543C144.71 203.15 144.622 202.762 144.456 202.402L136.807 184.121C136.579 183.578 136.185 183.112 135.676 182.783C135.167 182.455 134.566 182.279 133.951 182.278Z" fill="#1B3C47"/>
<path d="M173.077 140.961C172.908 140.961 172.742 140.917 172.597 140.835C172.452 140.752 172.333 140.634 172.252 140.493C172.172 140.351 172.133 140.192 172.14 140.031C172.146 139.87 172.198 139.714 172.29 139.579L182.976 123.826C183.433 123.155 184.138 122.672 184.953 122.473C185.767 122.274 186.63 122.374 187.37 122.752C187.765 122.957 188.111 123.236 188.39 123.571C188.668 123.907 188.873 124.293 188.991 124.705C189.109 125.118 189.138 125.549 189.077 125.972C189.016 126.396 188.865 126.803 188.634 127.17L182.012 137.668C181.963 137.788 181.887 137.897 181.79 137.987C181.693 138.076 181.576 138.145 181.448 138.188C181.32 138.231 181.184 138.247 181.049 138.235C180.914 138.223 180.783 138.183 180.665 138.119C180.548 138.054 180.447 137.966 180.368 137.861C180.29 137.756 180.236 137.636 180.211 137.509C180.186 137.382 180.19 137.251 180.223 137.126C180.256 137.001 180.317 136.884 180.402 136.783L187.02 126.29C187.211 125.979 187.266 125.61 187.176 125.261C187.085 124.912 186.855 124.61 186.534 124.42C186.213 124.23 185.827 124.166 185.458 124.242C185.088 124.319 184.765 124.529 184.556 124.829L173.87 140.564C173.783 140.687 173.665 140.788 173.526 140.858C173.388 140.927 173.233 140.963 173.077 140.961Z" fill="#1B3C47"/>
<path d="M270.427 108.968L270.859 112.77L271.292 116.573L267.612 115.03L263.936 113.483L267.183 111.224L270.427 108.968Z" fill="#00B8FF"/>
<path d="M130.715 13.7118L127.585 11.313L124.454 8.91425L128.202 7.53227L131.949 6.15028L131.332 9.93104L130.715 13.7118Z" fill="#00B8FF"/>
<path d="M186.098 276.081L182.968 273.682L179.838 271.283L183.585 269.905L187.332 268.523L186.715 272.303L186.098 276.081Z" fill="#00B8FF"/>
<path d="M86.8904 208.27C82.0187 208.265 77.3482 206.421 73.9033 203.143C70.4585 199.865 68.5206 195.42 68.5146 190.784V187.426C68.5146 187.141 68.6335 186.868 68.8452 186.667C69.0569 186.465 69.344 186.352 69.6433 186.352C69.9427 186.352 70.2298 186.465 70.4415 186.667C70.6531 186.868 70.7721 187.141 70.7721 187.426V190.784C70.8367 194.812 72.5635 198.654 75.5796 201.481C78.5957 204.307 82.6591 205.891 86.8923 205.891C91.1255 205.891 95.1889 204.307 98.2049 201.481C101.221 198.654 102.948 194.812 103.013 190.784V187.426C103.013 187.141 103.131 186.868 103.343 186.667C103.555 186.465 103.842 186.352 104.141 186.352C104.441 186.352 104.728 186.465 104.939 186.667C105.151 186.868 105.27 187.141 105.27 187.426V190.784C105.264 195.421 103.326 199.866 99.8799 203.144C96.4343 206.422 91.7628 208.266 86.8904 208.27Z" fill="#1B3C47"/>
<path d="M163.04 107V95.64H165.104L170.368 103.16V95.64H172.672V107H170.608L165.344 99.48V107H163.04ZM178.679 107.24C178.049 107.24 177.468 107.128 176.935 106.904C176.401 106.68 175.937 106.371 175.543 105.976C175.148 105.571 174.839 105.096 174.615 104.552C174.401 104.008 174.295 103.416 174.295 102.776C174.295 102.136 174.407 101.549 174.631 101.016C174.855 100.472 175.164 99.9973 175.559 99.592C175.964 99.1867 176.433 98.872 176.967 98.648C177.511 98.424 178.103 98.312 178.743 98.312C179.372 98.312 179.953 98.424 180.487 98.648C181.02 98.872 181.484 99.1867 181.879 99.592C182.273 99.9867 182.577 100.456 182.791 101C183.015 101.533 183.127 102.12 183.127 102.76C183.127 103.4 183.015 103.992 182.791 104.536C182.567 105.08 182.252 105.555 181.847 105.96C181.452 106.365 180.983 106.68 180.439 106.904C179.905 107.128 179.319 107.24 178.679 107.24ZM178.711 105.224C179.116 105.224 179.479 105.117 179.799 104.904C180.119 104.691 180.369 104.403 180.551 104.04C180.743 103.667 180.839 103.245 180.839 102.776C180.839 102.307 180.743 101.891 180.551 101.528C180.369 101.155 180.119 100.861 179.799 100.648C179.479 100.435 179.116 100.328 178.711 100.328C178.305 100.328 177.943 100.435 177.623 100.648C177.303 100.861 177.047 101.155 176.855 101.528C176.673 101.891 176.583 102.307 176.583 102.776C176.583 103.245 176.673 103.667 176.855 104.04C177.047 104.403 177.303 104.691 177.623 104.904C177.943 105.117 178.305 105.224 178.711 105.224ZM188.013 107.24C187.426 107.24 186.92 107.128 186.493 106.904C186.077 106.669 185.752 106.333 185.517 105.896C185.293 105.459 185.181 104.925 185.181 104.296V100.36H183.741V98.552H185.181V95.672H187.421V98.552H189.725V100.36H187.421V104.024C187.421 104.429 187.506 104.744 187.677 104.968C187.848 105.181 188.109 105.288 188.461 105.288C188.642 105.288 188.834 105.261 189.037 105.208C189.25 105.155 189.453 105.085 189.645 105L190.045 106.68C189.768 106.851 189.458 106.984 189.117 107.08C188.776 107.187 188.408 107.24 188.013 107.24Z" fill="black"/>
<path d="M194.917 107.24C194.287 107.24 193.69 107.128 193.125 106.904C192.57 106.68 192.09 106.344 191.685 105.896C191.29 105.448 191.013 104.893 190.853 104.232L192.965 103.864C193.103 104.301 193.338 104.643 193.669 104.888C193.999 105.133 194.399 105.256 194.869 105.256C195.21 105.256 195.509 105.192 195.765 105.064C196.031 104.936 196.239 104.765 196.389 104.552C196.538 104.328 196.613 104.067 196.613 103.768C196.613 103.48 196.538 103.229 196.389 103.016C196.239 102.792 196.026 102.621 195.749 102.504C195.482 102.376 195.173 102.312 194.821 102.312H193.653V100.36H194.709C195.05 100.36 195.343 100.301 195.589 100.184C195.845 100.067 196.042 99.9067 196.181 99.704C196.319 99.4907 196.389 99.2507 196.389 98.984C196.389 98.6107 196.25 98.3067 195.973 98.072C195.706 97.8267 195.354 97.704 194.917 97.704C194.511 97.704 194.149 97.8213 193.829 98.056C193.519 98.28 193.301 98.616 193.173 99.064L191.061 98.696C191.178 98.1093 191.418 97.592 191.781 97.144C192.154 96.696 192.618 96.3493 193.173 96.104C193.727 95.848 194.341 95.72 195.013 95.72C195.525 95.72 195.999 95.7947 196.437 95.944C196.885 96.0933 197.274 96.3067 197.605 96.584C197.935 96.8507 198.191 97.1707 198.373 97.544C198.554 97.9173 198.645 98.328 198.645 98.776C198.645 99.32 198.511 99.8053 198.245 100.232C197.978 100.648 197.594 100.979 197.093 101.224C197.658 101.437 198.101 101.773 198.421 102.232C198.751 102.691 198.917 103.229 198.917 103.848C198.917 104.328 198.815 104.776 198.613 105.192C198.41 105.608 198.127 105.971 197.765 106.28C197.402 106.579 196.975 106.813 196.485 106.984C196.005 107.155 195.482 107.24 194.917 107.24Z" fill="#0C9854"/>
</svg>
