<svg width="15" height="15" viewBox="0 0 15 15" fill="none" xmlns="http://www.w3.org/2000/svg">
<path d="M14.424 8.29541L8.60266 2.46816C8.29526 2.16061 7.8843 1.98903 7.45069 1.98903C7.4151 1.98903 7.3795 1.98903 7.34391 1.99226L3.13403 2.27068C2.67777 2.29981 2.30888 2.66887 2.27975 3.12534L2.17944 4.62101C1.96587 4.49799 1.76201 4.34259 1.57757 4.15806C1.12778 3.70807 0.849495 3.148 0.791249 2.57823C0.736239 2.03759 0.891562 1.55522 1.22809 1.21853C1.94322 0.503077 3.26023 0.661708 4.16951 1.56817C4.32159 1.72033 4.56752 1.72033 4.71961 1.56817C4.87169 1.41601 4.87169 1.16997 4.71961 1.01782C3.50292 -0.18972 1.69082 -0.345113 0.674758 0.67142C0.16996 1.17645 -0.0630229 1.87896 0.0146382 2.65916C0.0890635 3.40699 0.448246 4.1354 1.02423 4.71165C1.34782 5.03539 1.72318 5.29114 2.1212 5.46596L1.99823 7.34039C1.96587 7.80981 2.14061 8.26952 2.47391 8.60297L8.29849 14.4302C8.66738 14.7993 9.156 15 9.67698 15C10.198 15 10.6866 14.796 11.0555 14.4302L14.4305 11.0536C14.7994 10.6846 15 10.1957 15 9.67453C14.9968 9.15008 14.7929 8.66124 14.424 8.29541ZM13.8771 10.5001L10.4989 13.8799C10.2789 14.1 9.98438 14.223 9.6705 14.223C9.35662 14.223 9.06216 14.1 8.84212 13.8799L3.01754 8.05261C2.8428 7.8778 2.75219 7.63823 2.76837 7.39219L2.88163 5.69581C2.94635 5.70552 3.01106 5.71523 3.07578 5.72171C3.17286 5.73142 3.26993 5.7379 3.36377 5.7379C4.02713 5.7379 4.6193 5.50481 5.05938 5.06452C5.21146 4.91237 5.21146 4.66633 5.05938 4.51417C4.90729 4.36202 4.66136 4.36202 4.50928 4.51417C4.17274 4.85086 3.6906 5.00625 3.15021 4.95122C3.07578 4.94474 3.00459 4.93179 2.9334 4.91884L3.04989 3.18362C3.05313 3.11239 3.11138 3.05736 3.18256 3.05088L7.39245 2.77247C7.41186 2.77247 7.43128 2.76923 7.45069 2.76923C7.6772 2.76923 7.89724 2.85988 8.0558 3.01851L13.8771 8.84253C14.0972 9.06267 14.2202 9.35727 14.2202 9.6713C14.2202 9.98532 14.0972 10.2799 13.8771 10.5001Z" fill="black"/>
</svg>
